<svg version="1.1" xmlns="http://www.w3.org/2000/svg" viewBox="0 0 3353.190780923558 955.2548169580077" width="3353.190780923558" height="955.2548169580077">
  <!-- svg-source:excalidraw -->
  
  <defs>
    <style class="style-fonts">
      @font-face {
        font-family: "Virgil";
        src: url("https://excalidraw.com/Virgil.woff2");
      }
      @font-face {
        font-family: "Cascadia";
        src: url("https://excalidraw.com/Cascadia.woff2");
      }
      @font-face {
        font-family: "Assistant";
        src: url("https://excalidraw.com/Assistant-Regular.woff2");
      }
    </style>
    
  </defs>
  <rect x="0" y="0" width="3353.190780923558" height="955.2548169580077" fill="#fdf8f6"></rect><g stroke-linecap="round" transform="translate(2554.69981850085 478.1765890574229) rotate(0 329.1666666666672 159.16666666666663)"><path d="M32 0 C226.27 1.41, 420.2 1.19, 626.33 0 M32 0 C182.49 0.41, 333.15 0.39, 626.33 0 M626.33 0 C647.48 1.73, 658.82 9, 658.33 32 M626.33 0 C649.41 0.91, 659.67 12.03, 658.33 32 M658.33 32 C659.39 85.99, 658.52 138.12, 658.33 286.33 M658.33 32 C657.76 85.73, 657.68 138.16, 658.33 286.33 M658.33 286.33 C658.96 305.78, 648.44 318.79, 626.33 318.33 M658.33 286.33 C659.83 309.93, 647.9 316.56, 626.33 318.33 M626.33 318.33 C432.89 319.97, 241.02 319.96, 32 318.33 M626.33 318.33 C498.3 319.85, 370.57 319.7, 32 318.33 M32 318.33 C8.95 316.83, 0.24 306.33, 0 286.33 M32 318.33 C11.32 316.57, 1.4 307.98, 0 286.33 M0 286.33 C1.45 215.81, 0.64 141.97, 0 32 M0 286.33 C-1.81 186.62, -1.25 85.7, 0 32 M0 32 C-1.1 12.45, 9.88 -0.67, 32 0 M0 32 C2.27 11.91, 9.79 0.88, 32 0" stroke="#f08c00" stroke-width="4" fill="none"></path></g><g transform="translate(2819.088508177771 483.1765890574229) rotate(0 64.7779769897461 17.5)"><text x="64.7779769897461" y="0" font-family="Virgil, Segoe UI Emoji" font-size="28px" fill="#f08c00" text-anchor="middle" style="white-space: pre;" direction="ltr" dominant-baseline="text-before-edge">ACTIONS</text></g><g stroke-linecap="round" transform="translate(1652.4388697230793 375.4163439800949) rotate(0 390.8333333333337 229.16666666666663)"><path d="M32 0 C232.22 1.92, 433.03 1.51, 749.67 0 M32 0 C184.52 -2.68, 337.66 -2.45, 749.67 0 M749.67 0 C771.02 -0.31, 782.81 11.59, 781.67 32 M749.67 0 C770.33 -0.74, 780.5 9.66, 781.67 32 M781.67 32 C783.5 139.73, 782 247.92, 781.67 426.33 M781.67 32 C779.66 132.5, 779.24 233.99, 781.67 426.33 M781.67 426.33 C783.59 446.72, 771.95 456.5, 749.67 458.33 M781.67 426.33 C780.73 446.74, 770.13 458.04, 749.67 458.33 M749.67 458.33 C559.87 460.27, 369.04 460.2, 32 458.33 M749.67 458.33 C572.43 456.22, 395.54 456.29, 32 458.33 M32 458.33 C12.53 459.65, -1.18 448.21, 0 426.33 M32 458.33 C11.25 457.06, 0.1 447.06, 0 426.33 M0 426.33 C-3.15 342.45, -1.46 260, 0 32 M0 426.33 C0.34 311.83, 1.13 198.01, 0 32 M0 32 C0.51 9.22, 12.56 1.64, 32 0 M0 32 C1.23 12.44, 12.6 -1.29, 32 0" stroke="#f08c00" stroke-width="4" fill="none"></path></g><g transform="translate(1976.447206108171 380.4163439800949) rotate(0 66.82499694824219 17.5)"><text x="66.82499694824219" y="0" font-family="Virgil, Segoe UI Emoji" font-size="28px" fill="#f08c00" text-anchor="middle" style="white-space: pre;" direction="ltr" dominant-baseline="text-before-edge">MATCHER</text></g><g stroke-linecap="round" transform="translate(733.2722030564131 307.4435097399314) rotate(0 1304.9592889335727 318.90565360903815)"><path d="M32 0 C1048.42 3.84, 2065.37 5.01, 2577.92 0 M32 0 C712.22 -4.25, 1392.01 -4.27, 2577.92 0 M2577.92 0 C2601 0.67, 2609.1 9.98, 2609.92 32 M2577.92 0 C2598.03 -1.43, 2609.52 11.35, 2609.92 32 M2609.92 32 C2608.88 188.52, 2608.76 346.03, 2609.92 605.81 M2609.92 32 C2609.14 251.95, 2609.02 472.4, 2609.92 605.81 M2609.92 605.81 C2609.91 627.09, 2600.97 636.14, 2577.92 637.81 M2609.92 605.81 C2609.13 625.67, 2601.46 638.05, 2577.92 637.81 M2577.92 637.81 C2046.28 638.88, 1514.26 638.91, 32 637.81 M2577.92 637.81 C1697.54 638.5, 817.15 638.16, 32 637.81 M32 637.81 C9.73 635.88, -0.4 627.08, 0 605.81 M32 637.81 C11.88 639.54, -1.08 626.43, 0 605.81 M0 605.81 C1.92 411.96, 1.71 217.02, 0 32 M0 605.81 C-2.26 443.3, -1.89 281.76, 0 32 M0 32 C-0.87 10.29, 10.16 -1.8, 32 0 M0 32 C1.52 9.15, 9.23 -0.95, 32 0" stroke="#1971c2" stroke-width="4" fill="none"></path></g><g transform="translate(738.2722030564131 312.4435097399314) rotate(0 127.4759521484375 22.5)"><text x="0" y="0" font-family="Virgil, Segoe UI Emoji" font-size="36px" fill="#1971c2" text-anchor="start" style="white-space: pre;" direction="ltr" dominant-baseline="text-before-edge">Security Check</text></g><g stroke-linecap="round" transform="translate(1697.9905650110854 488.19798202542245) rotate(0 329.1666666666672 159.16666666666663)"><path d="M32 0 C177.8 -1.65, 323.83 -1.7, 626.33 0 M32 0 C207.74 0.88, 382.98 0.51, 626.33 0 M626.33 0 C645.72 0.79, 660.14 8.86, 658.33 32 M626.33 0 C649.92 0.81, 659.05 12.92, 658.33 32 M658.33 32 C658.04 113.76, 656.69 195.13, 658.33 286.33 M658.33 32 C658.2 130.64, 658.73 229.44, 658.33 286.33 M658.33 286.33 C656.84 306.4, 648.87 318.36, 626.33 318.33 M658.33 286.33 C657.19 308.78, 647.12 320.3, 626.33 318.33 M626.33 318.33 C481.84 320.68, 337.08 319.67, 32 318.33 M626.33 318.33 C450.98 318.32, 275.18 318.57, 32 318.33 M32 318.33 C10.22 318.36, 1.43 306.4, 0 286.33 M32 318.33 C12.52 317.33, 1.4 307.51, 0 286.33 M0 286.33 C-0.33 185.76, 0.15 87.8, 0 32 M0 286.33 C-0.46 190.76, -0.22 94.69, 0 32 M0 32 C-0.74 12.53, 8.72 1.98, 32 0 M0 32 C-1.32 12.22, 10.99 1.27, 32 0" stroke="#f08c00" stroke-width="4" fill="none"></path></g><g transform="translate(1962.3738988530454 493.19798202542245) rotate(0 64.78333282470703 17.5)"><text x="64.78333282470703" y="0" font-family="Virgil, Segoe UI Emoji" font-size="28px" fill="#f08c00" text-anchor="middle" style="white-space: pre;" direction="ltr" dominant-baseline="text-before-edge">ACTIONS</text></g><g stroke-linecap="round" transform="translate(13.445165894550996 71.03002412755632) rotate(0 218.2722030564131 194.30614906390855)"><path d="M32 0 C172.05 -0.73, 311.77 -0.82, 404.54 0 M32 0 C145.31 0.97, 259.08 1.62, 404.54 0 M404.54 0 C425.63 0.93, 438.47 11.88, 436.54 32 M404.54 0 C423.97 -2.03, 437.41 9.86, 436.54 32 M436.54 32 C436.5 106.45, 437.29 179.4, 436.54 356.61 M436.54 32 C434.66 147.29, 434.25 262.78, 436.54 356.61 M436.54 356.61 C435.13 376.02, 427.37 387.26, 404.54 388.61 M436.54 356.61 C434.32 375.76, 424.55 390.19, 404.54 388.61 M404.54 388.61 C319.57 389.91, 234.34 389.99, 32 388.61 M404.54 388.61 C314.27 389.26, 225.02 389.22, 32 388.61 M32 388.61 C11.23 388.42, -1.6 376.23, 0 356.61 M32 388.61 C9.53 388.88, 2.2 379.21, 0 356.61 M0 356.61 C2.47 268.65, 1.98 182.55, 0 32 M0 356.61 C-1.39 278.88, -2.19 201.9, 0 32 M0 32 C-0.67 12.65, 9.77 1.88, 32 0 M0 32 C-1.72 9.8, 8.62 -1.33, 32 0" stroke="#1e1e1e" stroke-width="2" fill="none"></path></g><g transform="translate(142.05070482742894 252.83617319146487) rotate(0 89.66666412353516 12.5)"><text x="89.66666412353516" y="0" font-family="Virgil, Segoe UI Emoji" font-size="20px" fill="#1e1e1e" text-anchor="middle" style="white-space: pre;" direction="ltr" dominant-baseline="text-before-edge">ESCAPE SCANNER</text></g><g stroke-linecap="round" transform="translate(733.867749864149 10) rotate(0 790.0888197870901 53.85904218347173)"><path d="M26.93 0 C523.76 -2.48, 1021.29 -2.78, 1553.25 0 M26.93 0 C369 3.81, 711.77 3.47, 1553.25 0 M1553.25 0 C1572.94 0.35, 1578.82 8.21, 1580.18 26.93 M1553.25 0 C1573.29 1.27, 1582.32 7.96, 1580.18 26.93 M1580.18 26.93 C1582.3 49, 1582.56 69.87, 1580.18 80.79 M1580.18 26.93 C1581.36 47.47, 1579.96 69.01, 1580.18 80.79 M1580.18 80.79 C1579.9 98.72, 1570.73 107.76, 1553.25 107.72 M1580.18 80.79 C1582.26 98.91, 1569.66 107.64, 1553.25 107.72 M1553.25 107.72 C1194.44 105.24, 836.05 104.53, 26.93 107.72 M1553.25 107.72 C1153.36 103.48, 753.67 102.98, 26.93 107.72 M26.93 107.72 C9.26 106.44, -0.28 99.73, 0 80.79 M26.93 107.72 C7.07 107.53, 1.99 100.38, 0 80.79 M0 80.79 C-0.99 64.77, 0.63 49.19, 0 26.93 M0 80.79 C-0.68 64.18, -0.74 46.32, 0 26.93 M0 26.93 C-1.01 9.24, 9.28 0.24, 26.93 0 M0 26.93 C2.28 9.97, 8 -1.43, 26.93 0" stroke="#2f9e44" stroke-width="4" fill="none"></path></g><g transform="translate(1503.3815688882996 51.35904218347173) rotate(0 20.575000762939453 12.5)"><text x="20.575000762939453" y="0" font-family="Virgil, Segoe UI Emoji" font-size="20px" fill="#2f9e44" text-anchor="middle" style="white-space: pre;" direction="ltr" dominant-baseline="text-before-edge">REQ</text></g><g stroke-linecap="round" transform="translate(799.9388697230798 370.6979820254219) rotate(0 390.83333333333394 229.16666666666663)"><path d="M32 0 C197.49 -0.48, 363.17 0.75, 749.67 0 M32 0 C243.05 2.21, 454.72 1.86, 749.67 0 M749.67 0 C770.65 0.52, 780.23 9.24, 781.67 32 M749.67 0 C769.02 -1.78, 779.85 11.54, 781.67 32 M781.67 32 C781.01 112.5, 780.02 194.11, 781.67 426.33 M781.67 32 C779.8 150.31, 779.54 269.65, 781.67 426.33 M781.67 426.33 C780.68 448.64, 771.38 457.44, 749.67 458.33 M781.67 426.33 C780.62 449.13, 772.46 460.15, 749.67 458.33 M749.67 458.33 C513.34 455.12, 277.35 454.93, 32 458.33 M749.67 458.33 C540.03 458.57, 330.41 458.64, 32 458.33 M32 458.33 C10.59 457.39, -0.74 447.68, 0 426.33 M32 458.33 C10.64 457.99, -1.47 449.66, 0 426.33 M0 426.33 C3.04 314.01, 2.87 204.7, 0 32 M0 426.33 C1.56 328.89, 1.81 231.81, 0 32 M0 32 C1.55 11.02, 11.53 0.37, 32 0 M0 32 C1.28 8.73, 12.32 -0.8, 32 0" stroke="#f08c00" stroke-width="4" fill="none"></path></g><g transform="translate(1123.9472061081715 375.6979820254219) rotate(0 66.82499694824219 17.5)"><text x="66.82499694824219" y="0" font-family="Virgil, Segoe UI Emoji" font-size="28px" fill="#f08c00" text-anchor="middle" style="white-space: pre;" direction="ltr" dominant-baseline="text-before-edge">MATCHER</text></g><g mask="url(#mask-Bd2Kc-E3gPNM0CqT_xTQS)" stroke-linecap="round"><g transform="translate(941.6055363897459 617.1861282674263) rotate(0 -238.61348563949343 -84.82079868269297)"><path d="M-0.43 -0.7 C-79.89 -28.97, -398.46 -142.06, -477.96 -170.12 M1.54 1.55 C-77.43 -26.52, -395.65 -140.06, -475.63 -168.83" stroke="#2f9e44" stroke-width="4" fill="none"></path></g><g transform="translate(941.6055363897459 617.1861282674263) rotate(0 -238.61348563949343 -84.82079868269297)"><path d="M-450.63 -168.97 C-456.83 -170.25, -461.49 -169.36, -475.63 -168.83 M-450.63 -168.97 C-459.16 -168.5, -467.58 -168.04, -475.63 -168.83" stroke="#2f9e44" stroke-width="4" fill="none"></path></g><g transform="translate(941.6055363897459 617.1861282674263) rotate(0 -238.61348563949343 -84.82079868269297)"><path d="M-456.39 -152.86 C-461.37 -157.37, -464.87 -159.72, -475.63 -168.83 M-456.39 -152.86 C-463.03 -158.02, -469.44 -163.17, -475.63 -168.83" stroke="#2f9e44" stroke-width="4" fill="none"></path></g></g><mask id="mask-Bd2Kc-E3gPNM0CqT_xTQS"><rect x="0" y="0" fill="#fff" width="1518.832507668733" height="886.8277256328122"></rect><rect x="612.7580801081626" y="509.86532958473333" fill="#000" width="180.4679412841797" height="45" opacity="1"></rect></mask><g stroke-linecap="round" transform="translate(870.772203056412 473.19798202542256) rotate(0 329.16666666666697 159.16666666666663)"><path d="M32 0 C212.45 0.68, 394.01 1.13, 626.33 0 M32 0 C234.38 0.58, 436.73 0.15, 626.33 0 M626.33 0 C646.17 0.78, 656.52 10.85, 658.33 32 M626.33 0 C646.85 1.17, 659.46 11.13, 658.33 32 M658.33 32 C659.68 133.24, 658.6 231.25, 658.33 286.33 M658.33 32 C659.28 96.01, 659.14 161.23, 658.33 286.33 M658.33 286.33 C657.31 308.82, 648.32 318.19, 626.33 318.33 M658.33 286.33 C656.96 307.31, 646.61 317.49, 626.33 318.33 M626.33 318.33 C488.51 316.64, 351.04 316.31, 32 318.33 M626.33 318.33 C425.75 318.07, 226.15 318.25, 32 318.33 M32 318.33 C12.17 319.24, 0.2 305.79, 0 286.33 M32 318.33 C12.87 319.12, -1.38 308.47, 0 286.33 M0 286.33 C1.27 227.92, -0.33 171.62, 0 32 M0 286.33 C-0.87 223.83, -0.47 160.88, 0 32 M0 32 C-0.23 9.77, 11.66 -0.42, 32 0 M0 32 C-0.82 8.48, 12.15 0.32, 32 0" stroke="#f08c00" stroke-width="4" fill="none"></path></g><g transform="translate(1135.1555368983722 478.19798202542256) rotate(0 64.78333282470703 17.5)"><text x="64.78333282470703" y="0" font-family="Virgil, Segoe UI Emoji" font-size="28px" fill="#f08c00" text-anchor="middle" style="white-space: pre;" direction="ltr" dominant-baseline="text-before-edge">ACTIONS</text></g><g stroke-linecap="round" transform="translate(951.6055363897461 569.8646486920888) rotate(0 165.0000000000001 54.16666666666663)"><path d="M27.08 0 C135.18 -1.54, 244.05 -2.97, 302.92 0 M27.08 0 C116.65 0.13, 207.5 0.13, 302.92 0 M302.92 0 C321.09 1.6, 328.7 7.29, 330 27.08 M302.92 0 C319.83 -0.32, 331.3 10.88, 330 27.08 M330 27.08 C328.51 46.94, 328.54 68.27, 330 81.25 M330 27.08 C331.19 45.02, 331.17 63.92, 330 81.25 M330 81.25 C331.94 99.51, 320.88 107.66, 302.92 108.33 M330 81.25 C330.33 99.06, 321.78 108.01, 302.92 108.33 M302.92 108.33 C230.49 108.11, 156.61 107.05, 27.08 108.33 M302.92 108.33 C226.34 108.33, 149.29 107.64, 27.08 108.33 M27.08 108.33 C8.18 108.7, -1.26 100.76, 0 81.25 M27.08 108.33 C11.26 108.24, -0.13 99.79, 0 81.25 M0 81.25 C-0.19 65.24, 1.23 46.5, 0 27.08 M0 81.25 C1.44 59.03, 0.5 38.7, 0 27.08 M0 27.08 C-0.16 10.27, 9.81 -1.69, 27.08 0 M0 27.08 C-1.1 9.39, 8.16 -1.86, 27.08 0" stroke="#2f9e44" stroke-width="4" fill="none"></path></g><g transform="translate(1077.0305356268068 601.5313153587555) rotate(0 39.57500076293945 22.5)"><text x="39.57500076293945" y="0" font-family="Virgil, Segoe UI Emoji" font-size="36px" fill="#2f9e44" text-anchor="middle" style="white-space: pre;" direction="ltr" dominant-baseline="text-before-edge">fuzz</text></g><g stroke-linecap="round"><g transform="translate(2019.1976975349016 767.9163439800943) rotate(0 -776.2960805725777 73.0574856893304)"><path d="M0.11 -0.58 C-37.87 23.61, 31.26 122.3, -227.5 146.32 C-486.27 170.33, -1331.58 143.98, -1552.49 143.52 M-1.3 1.73 C-39.46 26.05, 30.24 120.53, -228.41 144.3 C-487.06 168.07, -1332.45 144.37, -1553.2 144.34" stroke="#e03131" stroke-width="4" fill="none"></path></g><g transform="translate(2019.1976975349016 767.9163439800943) rotate(0 -776.2960805725777 73.0574856893304)"><path d="M-1529.59 136.11 C-1538.29 139, -1544.81 141.76, -1553.2 144.34 M-1529.59 136.11 C-1534.63 136.77, -1539.36 139.2, -1553.2 144.34" stroke="#e03131" stroke-width="4" fill="none"></path></g><g transform="translate(2019.1976975349016 767.9163439800943) rotate(0 -776.2960805725777 73.0574856893304)"><path d="M-1529.82 153.21 C-1538.61 150.44, -1545.05 147.53, -1553.2 144.34 M-1529.82 153.21 C-1534.76 150.07, -1539.43 148.7, -1553.2 144.34" stroke="#e03131" stroke-width="4" fill="none"></path></g></g><mask></mask><g stroke-linecap="round" transform="translate(1871.6055363897467 648.7496773134279) rotate(0 165.00000000000023 54.16666666666663)"><path d="M27.08 0 C97.18 0.35, 166.43 1.3, 302.92 0 M27.08 0 C130.35 1.57, 232.74 1.51, 302.92 0 M302.92 0 C322.17 -0.31, 329.09 7.25, 330 27.08 M302.92 0 C319.07 -1.13, 330.68 9.82, 330 27.08 M330 27.08 C329.13 38.79, 330.07 52.91, 330 81.25 M330 27.08 C330.72 47.19, 330.29 69.65, 330 81.25 M330 81.25 C328.3 98.85, 319.81 109.32, 302.92 108.33 M330 81.25 C329.17 100.32, 320.69 107.6, 302.92 108.33 M302.92 108.33 C220.43 106.68, 138.63 106.72, 27.08 108.33 M302.92 108.33 C238.31 110.14, 173.04 109.2, 27.08 108.33 M27.08 108.33 C10.04 110.31, 1.71 98.35, 0 81.25 M27.08 108.33 C9.43 107.51, -0.48 99.65, 0 81.25 M0 81.25 C1.55 60.54, -0.44 42.12, 0 27.08 M0 81.25 C-0.43 59.96, -0.79 39.51, 0 27.08 M0 27.08 C-1.49 7.59, 8.4 1.5, 27.08 0 M0 27.08 C-0.31 9.96, 9.86 -0.46, 27.08 0" stroke="#e03131" stroke-width="4" fill="none"></path></g><g transform="translate(1992.1055363897472 680.4163439800946) rotate(0 44.5 22.5)"><text x="44.5" y="0" font-family="Virgil, Segoe UI Emoji" font-size="36px" fill="#e03131" text-anchor="middle" style="white-space: pre;" direction="ltr" dominant-baseline="text-before-edge">alert</text></g><g transform="translate(612.7580801081626 509.86532958473333) rotate(0 90.64082166921798 23.03593050952533)"><text x="90.23397064208984" y="0" font-family="Virgil, Segoe UI Emoji" font-size="36px" fill="#1e1e1e" text-anchor="middle" style="white-space: pre;" direction="ltr" dominant-baseline="text-before-edge">Metadata</text></g><g mask="url(#mask-hTOdwswEFmL_5cf50z49s)" stroke-linecap="round"><g transform="translate(468.2722030564129 135.69798202542182) rotate(0 123.33333333333337 -25)"><path d="M0.23 -1.15 C41.38 -9.65, 205.97 -42.54, 247.08 -50.82 M-1.11 0.86 C39.9 -7.52, 205.13 -41.24, 246.35 -49.71" stroke="#2f9e44" stroke-width="4" fill="none"></path></g><g transform="translate(468.2722030564129 135.69798202542182) rotate(0 123.33333333333337 -25)"><path d="M225.05 -36.62 C229.84 -40.1, 237.12 -44.56, 246.35 -49.71 M225.05 -36.62 C230.36 -39.04, 233.95 -41.54, 246.35 -49.71" stroke="#2f9e44" stroke-width="4" fill="none"></path></g><g transform="translate(468.2722030564129 135.69798202542182) rotate(0 123.33333333333337 -25)"><path d="M221.63 -53.38 C227.52 -51.57, 235.88 -50.75, 246.35 -49.71 M221.63 -53.38 C227.64 -51.92, 232.01 -50.57, 246.35 -49.71" stroke="#2f9e44" stroke-width="4" fill="none"></path></g></g><mask id="mask-hTOdwswEFmL_5cf50z49s"><rect x="0" y="0" fill="#fff" width="814.9388697230796" height="285.6979820254218"></rect><rect x="501.3715657476564" y="88.19798202542182" fill="#000" width="180.4679412841797" height="45" opacity="1"></rect></mask><g stroke-linecap="round" transform="translate(10 716.3918329615133) rotate(0 218.27220305641316 112.63948239724186)"><path d="M32 0 C146.84 1.04, 261.78 -0.27, 404.54 0 M32 0 C133.53 1.3, 234.54 1.72, 404.54 0 M404.54 0 C425.13 -1.52, 434.7 11.07, 436.54 32 M404.54 0 C424.73 -0.86, 437.6 10.84, 436.54 32 M436.54 32 C436.13 69.75, 438.82 106.09, 436.54 193.28 M436.54 32 C437.71 80.12, 437.4 127.59, 436.54 193.28 M436.54 193.28 C435.34 213.64, 427.08 224.02, 404.54 225.28 M436.54 193.28 C437.23 213.57, 424.27 223.77, 404.54 225.28 M404.54 225.28 C286.09 224.4, 166.07 223.73, 32 225.28 M404.54 225.28 C306.85 225.4, 209.68 224.6, 32 225.28 M32 225.28 C11.57 223.73, 1.83 213.8, 0 193.28 M32 225.28 C8.69 226.16, -1.84 213.8, 0 193.28 M0 193.28 C-1.37 128.84, 1.67 67.94, 0 32 M0 193.28 C0.56 156.09, 0.43 120.27, 0 32 M0 32 C-0.75 10.48, 10.87 -1.69, 32 0 M0 32 C-1.46 8.77, 12.36 1.78, 32 0" stroke="#1e1e1e" stroke-width="2" fill="none"></path></g><g transform="translate(158.81386717994826 816.5313153587551) rotate(0 69.45833587646484 12.5)"><text x="69.45833587646484" y="0" font-family="Virgil, Segoe UI Emoji" font-size="20px" fill="#1e1e1e" text-anchor="middle" style="white-space: pre;" direction="ltr" dominant-baseline="text-before-edge">ESCAPE SAAS</text></g><g mask="url(#mask-TpBbHjgHTeOY1M-fpg8pW)" stroke-linecap="round"><g transform="translate(1151.6055363897462 127.36464869208902) rotate(0 -1.1368683772161603e-13 117.49999999999997)"><path d="M-0.19 0.87 C-0.37 40.28, -0.52 196.52, -0.31 235.53 M-1.75 0.29 C-2.18 39.41, -1.86 194.36, -1.42 233.69" stroke="#2f9e44" stroke-width="4" fill="none"></path></g><g transform="translate(1151.6055363897462 127.36464869208902) rotate(0 -1.1368683772161603e-13 117.49999999999997)"><path d="M-10.11 210.25 C-5.68 218.24, -3.1 229.05, -1.42 233.69 M-10.11 210.25 C-7.62 217.15, -5.2 224.85, -1.42 233.69" stroke="#2f9e44" stroke-width="4" fill="none"></path></g><g transform="translate(1151.6055363897462 127.36464869208902) rotate(0 -1.1368683772161603e-13 117.49999999999997)"><path d="M6.99 210.15 C5.22 218.15, 1.6 228.99, -1.42 233.69 M6.99 210.15 C4.41 216.92, 1.77 224.65, -1.42 233.69" stroke="#2f9e44" stroke-width="4" fill="none"></path></g></g><mask id="mask-TpBbHjgHTeOY1M-fpg8pW"><rect x="0" y="0" fill="#fff" width="1251.6055363897465" height="462.36464869208896"></rect><rect x="1061.3715657476564" y="222.364648692089" fill="#000" width="180.4679412841797" height="45" opacity="1"></rect></mask><g mask="url(#mask-QArszqAzu9mgwkss5WmtA)" stroke-linecap="round"><g transform="translate(1984.639941730215 129.0313153587557) rotate(0 0.389210241133469 118.60918097733622)"><path d="M-0.16 -0.93 C0.06 38.67, 0.69 197.5, 0.84 237.32 M-1.7 1.2 C-1.59 41.03, -0.35 199.76, -0.08 238.91" stroke="#2f9e44" stroke-width="4" fill="none"></path></g><g transform="translate(1984.639941730215 129.0313153587557) rotate(0 0.389210241133469 118.60918097733622)"><path d="M-8.8 215.48 C-8.15 221.64, -4.18 227.48, -0.08 238.91 M-8.8 215.48 C-4.89 223.54, -2.22 232.17, -0.08 238.91" stroke="#2f9e44" stroke-width="4" fill="none"></path></g><g transform="translate(1984.639941730215 129.0313153587557) rotate(0 0.389210241133469 118.60918097733622)"><path d="M8.3 215.36 C4.54 221.52, 4.09 227.4, -0.08 238.91 M8.3 215.36 C5.95 223.38, 2.35 232.06, -0.08 238.91" stroke="#2f9e44" stroke-width="4" fill="none"></path></g></g><mask id="mask-QArszqAzu9mgwkss5WmtA"><rect x="0" y="0" fill="#fff" width="2085.418362212482" height="466.24967731342815"></rect><rect x="1894.795181329258" y="225.14049633609193" fill="#000" width="180.4679412841797" height="45" opacity="1"></rect></mask><g stroke-linecap="round" transform="translate(2506.7531805539306 383.838687089833) rotate(0 390.8333333333337 229.16666666666663)"><path d="M32 0 C302.8 -2, 574.88 -2.44, 749.67 0 M32 0 C249.58 2.89, 466.57 2.54, 749.67 0 M749.67 0 C770.93 -1.09, 780.6 9.67, 781.67 32 M749.67 0 C769.01 -0.17, 781.98 10.99, 781.67 32 M781.67 32 C783.65 111.68, 782.43 191.41, 781.67 426.33 M781.67 32 C780.26 176.67, 780.15 322.01, 781.67 426.33 M781.67 426.33 C780.43 447.05, 770.3 458.18, 749.67 458.33 M781.67 426.33 C782.41 445.87, 770.76 456.43, 749.67 458.33 M749.67 458.33 C573.07 457.36, 396.2 455.8, 32 458.33 M749.67 458.33 C552.88 461.26, 355.45 460.77, 32 458.33 M32 458.33 C12.41 458.49, -1.8 448.26, 0 426.33 M32 458.33 C12.29 459.93, -0.18 445.71, 0 426.33 M0 426.33 C-0.38 316.38, -0.04 204.63, 0 32 M0 426.33 C-1.58 269.34, -2.15 112.96, 0 32 M0 32 C-1.72 10.24, 10.62 1.45, 32 0 M0 32 C-1.45 9.37, 12.28 -1.94, 32 0" stroke="#f08c00" stroke-width="4" fill="none"></path></g><g transform="translate(2830.7645305498622 388.838687089833) rotate(0 66.82198333740234 17.5)"><text x="66.82198333740234" y="0" font-family="Virgil, Segoe UI Emoji" font-size="28px" fill="#f08c00" text-anchor="middle" style="white-space: pre;" direction="ltr" dominant-baseline="text-before-edge">MATCHER</text></g><g stroke-linecap="round" transform="translate(2597.8270543677636 656.4032646939779) rotate(0 165.00000000000023 54.16666666666663)"><path d="M27.08 0 C131.96 0.86, 235.31 0.74, 302.92 0 M27.08 0 C125.02 0.26, 222.6 0.3, 302.92 0 M302.92 0 C319.24 -0.15, 330.27 9.31, 330 27.08 M302.92 0 C318.69 1.68, 328.48 9.67, 330 27.08 M330 27.08 C330.94 44.23, 330.22 64.34, 330 81.25 M330 27.08 C329.37 38.58, 329.64 50.62, 330 81.25 M330 81.25 C330.65 97.74, 320.77 106.68, 302.92 108.33 M330 81.25 C328.77 101.21, 319.58 109.5, 302.92 108.33 M302.92 108.33 C193.37 105.62, 86.13 107.39, 27.08 108.33 M302.92 108.33 C213.14 106.39, 121.32 106.55, 27.08 108.33 M27.08 108.33 C10.44 109.72, -0.15 97.61, 0 81.25 M27.08 108.33 C8.6 108.92, -0.18 99.7, 0 81.25 M0 81.25 C1.69 61.84, -1.03 40.47, 0 27.08 M0 81.25 C-0.78 68.84, 0.06 57.59, 0 27.08 M0 27.08 C-1.26 7.9, 10.43 -1.69, 27.08 0 M0 27.08 C-1.38 9.32, 8.09 -1.29, 27.08 0" stroke="#9c36b5" stroke-width="4" fill="none"></path></g><g transform="translate(2695.399083481533 688.0699313606445) rotate(0 67.42797088623047 22.5)"><text x="67.42797088623047" y="0" font-family="Virgil, Segoe UI Emoji" font-size="36px" fill="#9c36b5" text-anchor="middle" style="white-space: pre;" direction="ltr" dominant-baseline="text-before-edge">request</text></g><g transform="translate(1894.7951813292584 225.14049633609193) rotate(0 89.41195082199329 22.883344839918422)"><text x="90.23397064208984" y="0" font-family="Virgil, Segoe UI Emoji" font-size="36px" fill="#1e1e1e" text-anchor="middle" style="white-space: pre;" direction="ltr" dominant-baseline="text-before-edge">Metadata</text></g><g mask="url(#mask-tHhCzXxUstDFrv03eE5L0)" stroke-linecap="round"><g transform="translate(2319.5803802699606 129.62261230409115) rotate(0 246.2553808055825 122.06858175868264)"><path d="M0.47 -0.9 C82.27 39.87, 409.68 202.72, 491.49 243.6 M-0.74 1.24 C81.35 42.26, 411.28 204.09, 493.67 244.85" stroke="#2f9e44" stroke-width="4" fill="none"></path></g><g transform="translate(2319.5803802699606 129.62261230409115) rotate(0 246.2553808055825 122.06858175868264)"><path d="M468.82 242.14 C476.21 241.32, 485.72 242.02, 493.67 244.85 M468.82 242.14 C476.42 242.76, 485.4 244.32, 493.67 244.85" stroke="#2f9e44" stroke-width="4" fill="none"></path></g><g transform="translate(2319.5803802699606 129.62261230409115) rotate(0 246.2553808055825 122.06858175868264)"><path d="M476.37 226.8 C480.93 231.51, 487.73 237.72, 493.67 244.85 M476.37 226.8 C481.53 232.38, 488.1 238.85, 493.67 244.85" stroke="#2f9e44" stroke-width="4" fill="none"></path></g></g><mask id="mask-tHhCzXxUstDFrv03eE5L0"><rect x="0" y="0" fill="#fff" width="2912.0911418811256" height="473.7597758214564"></rect><rect x="2475.6017904334535" y="229.19119406277377" fill="#000" width="180.4679412841797" height="45" opacity="1"></rect></mask><g transform="translate(501.3715657476564 88.19798202542182) rotate(0 89.88752577078048 22.519617032962852)"><text x="90.23397064208984" y="0" font-family="Virgil, Segoe UI Emoji" font-size="36px" fill="#1e1e1e" text-anchor="middle" style="white-space: pre;" direction="ltr" dominant-baseline="text-before-edge">Metadata</text></g><g transform="translate(2475.601790433453 229.19119406277377) rotate(0 90.44155340990096 22.4064166995976)"><text x="90.23397064208984" y="0" font-family="Virgil, Segoe UI Emoji" font-size="36px" fill="#1e1e1e" text-anchor="middle" style="white-space: pre;" direction="ltr" dominant-baseline="text-before-edge">Metadata</text></g><g transform="translate(1061.3715657476564 222.364648692089) rotate(0 89.16071650343451 22.9093844103394)"><text x="90.23397064208984" y="0" font-family="Virgil, Segoe UI Emoji" font-size="36px" fill="#1e1e1e" text-anchor="middle" style="white-space: pre;" direction="ltr" dominant-baseline="text-before-edge">Metadata</text></g><g mask="url(#mask-wj0OkquFXVA5MUK06eqXY)" stroke-linecap="round"><g transform="translate(2744.441328447947 773.141694238904) rotate(0 -1238.365993686468 -87.87330193872322)"><path d="M1.08 0.54 C-286.4 20.9, -1309.23 169.88, -1722.36 120.14 C-2135.49 70.4, -2352.15 -228.57, -2477.72 -297.89 M-1.78 -1.64 C-289.97 19.24, -1312.23 171.71, -1725.28 122.83 C-2138.33 73.94, -2355.17 -224.32, -2480.06 -294.92" stroke="#6741d9" stroke-width="4" fill="none"></path></g><g transform="translate(2744.441328447947 773.141694238904) rotate(0 -1238.365993686468 -87.87330193872322)"><path d="M-2456 -287.81 C-2466.8 -290.65, -2474.97 -292.38, -2478.74 -293.81 M-2456.83 -286.25 C-2465.73 -289.17, -2474.98 -292.7, -2479.29 -294.93" stroke="#6741d9" stroke-width="4" fill="none"></path></g><g transform="translate(2744.441328447947 773.141694238904) rotate(0 -1238.365993686468 -87.87330193872322)"><path d="M-2466.68 -274.46 C-2473.22 -282.54, -2477.23 -289.48, -2478.74 -293.81 M-2467.51 -272.9 C-2472.23 -281.13, -2477.25 -289.95, -2479.29 -294.93" stroke="#6741d9" stroke-width="4" fill="none"></path></g></g><mask id="mask-wj0OkquFXVA5MUK06eqXY"><rect x="0" y="0" fill="#fff" width="5321.173315820883" height="1292.6652619344177"></rect><rect x="933.1079871145157" y="872.5301761479376" fill="#000" width="180.4679412841797" height="45" opacity="1"></rect></mask><g transform="translate(933.1079871145162 872.5301761479376) rotate(0 571.8405117919779 -182.11745414459864)"><text x="90.23397064208984" y="0" font-family="Virgil, Segoe UI Emoji" font-size="36px" fill="#1e1e1e" text-anchor="middle" style="white-space: pre;" direction="ltr" dominant-baseline="text-before-edge">Metadata</text></g></svg>