<svg width="500" height="182" viewBox="0 0 500 182" fill="none" xmlns="http://www.w3.org/2000/svg">
<path d="M500 0H0V182H500V0Z" fill="white"/>
<path d="M213.125 108.577L215.729 108.317L215.911 113.595C209.089 114.557 203.255 115.025 198.411 115.025C191.953 115.025 187.37 113.153 184.687 109.435C182.005 105.691 180.651 99.8927 180.651 91.9887C180.651 76.2847 186.901 68.4067 199.427 68.4067C205.469 68.4067 210 70.0967 212.995 73.4767C215.99 76.8567 217.474 82.1607 217.474 89.3887L217.109 94.5107H187.448C187.448 99.4767 188.333 103.143 190.13 105.535C191.927 107.927 195.052 109.123 199.505 109.123C203.984 109.123 208.516 108.941 213.125 108.577ZM210.703 89.1287C210.703 83.6427 209.818 79.7427 208.047 77.4807C206.276 75.2187 203.411 74.0747 199.427 74.0747C195.443 74.0747 192.448 75.2707 190.443 77.6627C188.437 80.0547 187.396 83.8767 187.344 89.1287H210.703Z" fill="#050028"/>
<path d="M242.031 74.412C235.495 74.412 232.24 76.674 232.24 81.224C232.24 83.304 232.995 84.786 234.479 85.67C235.963 86.528 239.375 87.438 244.713 88.348C250.052 89.284 253.802 90.584 256.016 92.248C258.229 93.912 259.349 97.058 259.349 101.66C259.349 106.262 257.864 109.642 254.896 111.8C251.927 113.958 247.604 115.024 241.927 115.024C238.203 115.024 233.854 114.608 228.828 113.776L226.146 113.334L226.51 107.51C233.333 108.524 238.49 109.044 241.953 109.044C245.417 109.044 248.073 108.498 249.896 107.38C251.719 106.262 252.63 104.416 252.63 101.816C252.63 99.216 251.849 97.448 250.286 96.538C248.724 95.602 245.312 94.744 240.052 93.886C234.792 93.054 231.042 91.832 228.828 90.22C226.615 88.608 225.495 85.618 225.495 81.25C225.495 76.882 227.031 73.658 230.13 71.578C233.203 69.498 237.057 68.432 241.667 68.432C245.312 68.432 249.896 68.848 255.391 69.68L257.917 70.122L257.734 75.868C251.094 74.906 245.859 74.412 242.031 74.412Z" fill="#050028"/>
<path d="M286.484 68.406C288.463 68.406 291.823 68.77 296.536 69.472L298.698 69.732L298.437 75.192C293.646 74.646 290.13 74.386 287.838 74.386C282.76 74.386 279.297 75.608 277.474 78.026C275.651 80.444 274.739 84.916 274.739 91.468C274.739 98.02 275.599 102.57 277.292 105.144C279.01 107.718 282.552 108.992 287.943 108.992L298.542 108.186L298.802 113.75C293.229 114.582 289.062 114.998 286.328 114.998C279.323 114.998 274.479 113.204 271.823 109.616C269.167 106.028 267.838 99.97 267.838 91.468C267.838 82.966 269.271 76.986 272.135 73.554C274.974 70.122 279.766 68.406 286.484 68.406Z" fill="#050028"/>
<path d="M340.521 82.836V105.794C340.703 108.004 342.448 109.33 345.729 109.746L345.469 115.024C340.729 115.024 337.187 113.828 334.792 111.436C329.401 113.828 324.01 115.024 318.62 115.024C314.479 115.024 311.354 113.854 309.193 111.54C307.031 109.2 305.963 105.872 305.963 101.504C305.963 97.136 307.083 93.938 309.297 91.858C311.51 89.804 314.974 88.53 319.713 88.062L333.802 86.71V82.862C333.802 79.82 333.151 77.636 331.823 76.31C330.495 74.984 328.698 74.334 326.432 74.334C321.641 74.334 316.667 74.646 311.536 75.218L308.75 75.478L308.489 70.356C315.078 69.03 320.911 68.38 325.99 68.38C331.068 68.38 334.766 69.55 337.083 71.864C339.375 74.23 340.521 77.896 340.521 82.836ZM312.865 101.14C312.865 106.626 315.13 109.382 319.687 109.382C323.75 109.382 327.76 108.706 331.719 107.328L333.776 106.6V91.806L320.495 93.054C317.812 93.288 315.859 94.068 314.661 95.394C313.463 96.72 312.865 98.618 312.865 101.14Z" fill="#050028"/>
<path d="M353.802 134.03V69.316H360.443V72.54C365 69.784 369.479 68.406 373.906 68.406C379.583 68.406 383.724 70.226 386.302 73.84C388.88 77.454 390.156 83.408 390.156 91.728C390.156 100.022 388.646 106.002 385.625 109.616C382.604 113.23 377.578 115.05 370.599 115.05C366.953 115.05 363.594 114.712 360.547 114.062V134.056H353.802V134.03ZM372.943 74.412C371.146 74.412 369.219 74.724 367.162 75.296C365.104 75.894 363.464 76.492 362.266 77.09L360.547 77.974V108.186C364.792 108.836 368.021 109.174 370.234 109.174C375.078 109.174 378.49 107.796 380.417 105.04C382.37 102.284 383.333 97.812 383.333 91.598C383.333 85.384 382.448 80.964 380.677 78.338C378.932 75.738 376.354 74.412 372.943 74.412Z" fill="#050028"/>
<path d="M431.641 108.576L434.245 108.316L434.427 113.594C427.604 114.556 421.771 115.024 416.927 115.024C410.469 115.024 405.885 113.152 403.203 109.434C400.521 105.69 399.167 99.892 399.167 91.988C399.167 76.284 405.417 68.406 417.943 68.406C423.984 68.406 428.516 70.096 431.51 73.476C434.505 76.856 435.99 82.16 435.99 89.388L435.625 94.51H405.99C405.99 99.476 406.875 103.142 408.672 105.534C410.469 107.926 413.594 109.122 418.047 109.122C422.5 109.122 427.031 108.94 431.641 108.576ZM429.219 89.128C429.219 83.642 428.333 79.742 426.562 77.48C424.792 75.218 421.927 74.074 417.943 74.074C413.958 74.074 410.963 75.27 408.958 77.662C406.953 80.054 405.911 83.876 405.859 89.128H429.219Z" fill="#050028"/>
<path d="M97.6562 97.994C86.0937 97.994 76.6927 88.608 76.6927 77.064C76.6927 67.574 83.3333 59.514 93.6458 56.55C101.693 54.236 135.521 44.824 136.953 44.408C137.318 44.304 137.656 44.2 138.021 44.096C138.047 44.096 138.073 44.07 138.099 44.07C139.74 43.654 141.432 43.446 143.151 43.446C154.714 43.446 164.115 52.832 164.115 64.376C164.115 73.996 157.552 81.692 146.562 84.994L104.219 96.928C103.62 97.136 103.021 97.292 102.396 97.448C102.37 97.448 102.37 97.448 102.344 97.474C100.833 97.812 99.2448 97.994 97.6562 97.994ZM143.177 49.634C141.979 49.634 140.781 49.79 139.609 50.076C139.297 50.154 139.036 50.232 138.75 50.31C138.724 50.31 138.698 50.336 138.646 50.336C138.307 50.44 103.516 60.112 95.3385 62.452C89.2969 64.194 82.8385 68.952 82.8385 77.064C82.8385 85.202 89.4791 91.832 97.6302 91.832C98.75 91.832 99.8698 91.702 100.964 91.468C101.432 91.364 101.875 91.234 102.344 91.078C102.396 91.052 102.448 91.052 102.474 91.026L144.844 79.092C148.75 77.922 157.943 74.126 157.943 64.376C157.969 56.264 151.328 49.634 143.177 49.634Z" fill="#05E2B7"/>
<g opacity="0.7">
<path opacity="0.7" d="M91.3281 117.988C79.7656 117.988 70.3646 108.602 70.3646 97.058C70.3646 87.568 77.0052 79.508 87.3177 76.544C95.3646 74.23 129.193 64.818 130.625 64.402C130.99 64.298 131.328 64.194 131.693 64.09C131.719 64.09 131.745 64.064 131.771 64.064C133.411 63.648 135.104 63.44 136.823 63.44C148.385 63.44 157.786 72.826 157.786 84.37C157.786 93.99 151.224 101.686 140.234 104.988L97.8906 116.896C97.2916 117.104 96.6927 117.26 96.0677 117.416C96.0416 117.416 96.0416 117.416 96.0156 117.442C94.5052 117.806 92.9166 117.988 91.3281 117.988ZM136.849 69.628C135.651 69.628 134.453 69.784 133.281 70.07C132.969 70.148 132.708 70.226 132.422 70.304C132.396 70.304 132.37 70.33 132.318 70.33C131.979 70.434 97.1875 80.106 89.0104 82.446C82.9687 84.188 76.5104 88.946 76.5104 97.058C76.5104 105.196 83.151 111.826 91.3021 111.826C92.4218 111.826 93.5416 111.696 94.6354 111.462C95.1041 111.358 95.5468 111.228 95.9896 111.072C96.0416 111.046 138.49 99.112 138.49 99.112C142.396 97.942 151.588 94.146 151.588 84.396C151.641 76.258 145 69.628 136.849 69.628Z" fill="#05E2B7"/>
</g>
<g opacity="0.45">
<path opacity="0.45" d="M85 138.502C73.4375 138.502 64.0364 129.116 64.0364 117.572C64.0364 108.082 70.6771 100.022 80.9896 97.058C89.0364 94.744 122.865 85.332 124.297 84.916C124.661 84.812 125 84.708 125.365 84.604C125.391 84.604 125.417 84.578 125.443 84.578C127.083 84.162 128.776 83.954 130.495 83.954C142.057 83.954 151.458 93.34 151.458 104.884C151.458 114.504 144.896 122.2 133.906 125.502L91.5625 137.436C90.9375 137.644 90.3125 137.826 89.6875 137.956C88.1771 138.346 86.5885 138.502 85 138.502ZM130.521 90.168C129.323 90.168 128.125 90.324 126.953 90.61C126.641 90.688 126.38 90.766 126.094 90.844C126.068 90.844 126.042 90.87 125.99 90.87C125.651 90.974 90.8593 100.646 82.6823 102.986C76.6406 104.728 70.1823 109.486 70.1823 117.598C70.1823 125.736 76.8229 132.366 84.9739 132.366C86.0937 132.366 87.2135 132.236 88.3073 132.002C88.776 131.898 89.2187 131.768 89.6875 131.612C89.7396 131.586 89.7916 131.586 89.8177 131.56L132.187 119.626C136.094 118.456 145.286 114.66 145.286 104.91C145.312 96.772 138.672 90.168 130.521 90.168Z" fill="#05E2B7"/>
</g>
</svg>
