<svg width="141" height="36" fill="none" xmlns="http://www.w3.org/2000/svg"><path d="m56.373 24.668.985-.099.069 1.999c-2.58.364-4.786.542-6.618.542-2.442 0-4.175-.71-5.189-2.117-1.014-1.418-1.526-3.614-1.526-6.608 0-5.947 2.363-8.93 7.1-8.93 2.284 0 3.997.64 5.13 1.92 1.132 1.28 1.693 3.288 1.693 6.026l-.138 1.94H46.664c0 1.88.335 3.269 1.014 4.174.68.906 1.861 1.36 3.545 1.36 1.694 0 3.407-.07 5.15-.207Zm-.916-7.366c0-2.078-.335-3.555-1.004-4.411-.67-.857-1.753-1.29-3.26-1.29-1.506 0-2.639.453-3.397 1.359-.758.905-1.152 2.353-1.172 4.342h8.833ZM67.304 11.728c-2.472 0-3.703.856-3.703 2.58 0 .787.286 1.349.847 1.683.561.325 1.851.67 3.87 1.015 2.018.354 3.436.846 4.273 1.477.837.63 1.26 1.821 1.26 3.564s-.56 3.023-1.683 3.84c-1.123.818-2.757 1.221-4.904 1.221-1.408 0-3.052-.157-4.953-.472l-1.014-.168.138-2.205c2.58.384 4.53.58 5.839.58 1.31 0 2.314-.206 3.003-.63.69-.423 1.034-1.122 1.034-2.107 0-.984-.295-1.654-.886-1.999-.59-.354-1.88-.679-3.87-1.004-1.989-.315-3.407-.778-4.244-1.388-.837-.61-1.26-1.743-1.26-3.398 0-1.654.58-2.875 1.752-3.663 1.163-.787 2.62-1.191 4.363-1.191 1.378 0 3.111.157 5.189.473l.955.167-.069 2.176c-2.51-.364-4.49-.551-5.937-.551ZM84.11 9.453c.75 0 2.02.138 3.802.404l.817.098-.098 2.068c-1.812-.207-3.141-.305-4.008-.305-1.92 0-3.23.463-3.92 1.379-.688.915-1.033 2.609-1.033 5.09 0 2.482.325 4.205.965 5.18.65.975 1.989 1.457 4.027 1.457l4.008-.305.099 2.107c-2.108.315-3.683.473-4.717.473-2.649 0-4.48-.68-5.485-2.038-1.004-1.36-1.506-3.654-1.506-6.874 0-3.22.541-5.484 1.624-6.784 1.074-1.3 2.885-1.95 5.426-1.95ZM104.543 14.918v8.695c.069.837.729 1.34 1.97 1.497l-.099 1.999c-1.792 0-3.131-.453-4.037-1.36-2.038.907-4.076 1.36-6.115 1.36-1.566 0-2.747-.443-3.564-1.32-.818-.886-1.221-2.146-1.221-3.8 0-1.655.423-2.866 1.26-3.654.837-.778 2.147-1.26 3.939-1.438l5.327-.512v-1.457c0-1.152-.246-1.98-.748-2.481-.503-.502-1.182-.749-2.039-.749-1.812 0-3.692.118-5.632.335l-1.054.099-.098-1.94c2.491-.502 4.697-.749 6.617-.749s3.318.443 4.195 1.32c.866.896 1.299 2.284 1.299 4.155Zm-10.457 6.933c0 2.077.857 3.12 2.58 3.12 1.536 0 3.052-.255 4.549-.777l.778-.276v-5.603l-5.022.473c-1.014.089-1.753.384-2.206.886-.453.503-.679 1.221-.679 2.177ZM109.566 34.307V9.797h2.511v1.222c1.724-1.044 3.417-1.566 5.091-1.566 2.147 0 3.713.69 4.687 2.058.975 1.369 1.458 3.624 1.458 6.775 0 3.141-.571 5.406-1.714 6.774-1.142 1.37-3.042 2.059-5.681 2.059-1.379 0-2.649-.128-3.801-.375v7.573h-2.551v-.01Zm7.238-22.58c-.68 0-1.408.119-2.186.336-.778.226-1.398.452-1.851.679l-.65.335v11.442c1.605.246 2.826.374 3.663.374 1.831 0 3.121-.522 3.85-1.566.738-1.043 1.103-2.737 1.103-5.09 0-2.354-.335-4.028-1.005-5.022-.659-.985-1.634-1.487-2.924-1.487ZM138.998 24.667l.985-.099.068 1.999c-2.579.364-4.785.542-6.617.542-2.442 0-4.175-.71-5.189-2.118-1.014-1.417-1.526-3.613-1.526-6.607 0-5.947 2.363-8.93 7.099-8.93 2.285 0 3.998.64 5.131 1.92 1.132 1.28 1.693 3.288 1.693 6.026l-.138 1.94h-11.205c0 1.88.334 3.269 1.014 4.175.679.905 1.861 1.358 3.545 1.358s3.397-.069 5.14-.206Zm-.916-7.366c0-2.078-.335-3.555-1.004-4.411-.67-.857-1.753-1.29-3.26-1.29-1.506 0-2.639.453-3.397 1.359-.758.905-1.152 2.353-1.172 4.342h8.833Z" fill="#FCFCFC"/><path d="M12.712 20.659c-4.372 0-7.927-3.555-7.927-7.927 0-3.594 2.511-6.647 6.41-7.77C14.238 4.087 27.03.523 27.572.365l.404-.118c.01 0 .02-.01.03-.01A7.75 7.75 0 0 1 29.914 0c4.371 0 7.926 3.555 7.926 7.927 0 3.643-2.481 6.558-6.637 7.808l-16.01 4.52a7.91 7.91 0 0 1-.69.197c-.01 0-.01 0-.02.01a8.15 8.15 0 0 1-1.772.197ZM29.924 2.344c-.453 0-.906.059-1.349.167-.118.03-.216.059-.325.089-.01 0-.02.01-.04.01-.127.039-13.283 3.702-16.375 4.588-2.284.66-4.726 2.462-4.726 5.534a5.602 5.602 0 0 0 5.593 5.593c.424 0 .847-.05 1.26-.138.178-.04.345-.088.522-.148.02-.01.04-.01.05-.02l16.02-4.519c1.478-.443 4.954-1.88 4.954-5.573.01-3.072-2.502-5.583-5.584-5.583Z" fill="#66DEB9"/><path opacity=".7" d="M10.32 28.231c-4.373 0-7.927-3.555-7.927-7.927 0-3.594 2.51-6.646 6.41-7.769 3.043-.876 15.834-4.44 16.375-4.598.138-.04.266-.08.404-.119.01 0 .02-.01.03-.01a7.75 7.75 0 0 1 1.91-.236c4.372 0 7.927 3.555 7.927 7.927 0 3.643-2.482 6.558-6.637 7.809L12.8 27.818a7.887 7.887 0 0 1-.69.196c-.01 0-.01 0-.02.01a7.592 7.592 0 0 1-1.772.207ZM27.531 9.916c-.453 0-.906.059-1.35.167-.117.03-.216.06-.324.089-.01 0-.02.01-.04.01-.128.04-13.283 3.702-16.375 4.588-2.285.66-4.727 2.462-4.727 5.534a5.602 5.602 0 0 0 5.593 5.593c.424 0 .847-.049 1.26-.137.178-.04.345-.09.513-.148.02-.01 16.07-4.53 16.07-4.53 1.477-.443 4.953-1.88 4.953-5.573.02-3.082-2.491-5.593-5.573-5.593Z" fill="#66DEB9"/><path opacity=".45" d="M7.927 36C3.555 36 0 32.445 0 28.073c0-3.594 2.511-6.647 6.41-7.77 3.043-.876 15.834-4.44 16.376-4.598.138-.04.266-.079.403-.118.01 0 .02-.01.03-.01a7.752 7.752 0 0 1 1.91-.236c4.372 0 7.927 3.555 7.927 7.927 0 3.643-2.481 6.558-6.637 7.808l-16.01 4.52a6.331 6.331 0 0 1-.71.197A7.098 7.098 0 0 1 7.927 36Zm17.212-18.306c-.453 0-.906.06-1.349.168-.118.03-.216.059-.325.088-.01 0-.02.01-.04.01-.127.04-13.283 3.703-16.375 4.589-2.284.66-4.726 2.462-4.726 5.534a5.602 5.602 0 0 0 5.593 5.593c.423 0 .847-.05 1.26-.138.178-.04.345-.089.522-.148.02-.01.04-.01.05-.02l16.02-4.52c1.477-.442 4.953-1.88 4.953-5.573.01-3.082-2.5-5.583-5.583-5.583Z" fill="#66DEB9"/></svg>
