<?xml version="1.0" encoding="UTF-8"?>
<!DOCTYPE svg PUBLIC "-//W3C//DTD SVG 1.1//EN" "http://www.w3.org/Graphics/SVG/1.1/DTD/svg11.dtd">
<svg xmlns="http://www.w3.org/2000/svg" version="1.1" width="2048px" height="355px" style="shape-rendering:geometricPrecision; text-rendering:geometricPrecision; image-rendering:optimizeQuality; fill-rule:evenodd; clip-rule:evenodd" xmlns:xlink="http://www.w3.org/1999/xlink">
<g><path style="opacity:0.726" fill="#04e1b7" d="M 289.5,0.5 C 298.501,0.555364 307.501,0.555364 316.5,0.5C 318.122,2.43862 319.956,2.77196 322,1.5C 329.606,4.7221 337.106,8.05544 344.5,11.5C 348.193,14.6856 352.193,17.5189 356.5,20C 360.823,24.9596 365.157,29.9596 369.5,35C 368.655,36.5581 369.321,37.5581 371.5,38C 371.167,38.3333 370.833,38.6667 370.5,39C 371.945,41.9268 373.945,44.9268 376.5,48C 376.167,48.3333 375.833,48.6667 375.5,49C 377.411,52.5796 379.078,56.2463 380.5,60C 379.335,61.8685 379.668,63.7018 381.5,65.5C 381.291,66.086 380.957,66.586 380.5,67C 382.248,73.6384 382.915,80.3051 382.5,87C 381.155,89.7423 380.155,92.409 379.5,95C 376.382,110.375 368.882,123.541 357,134.5C 356.318,136.938 356.818,139.105 358.5,141C 358.348,148.714 358.348,156.214 358.5,163.5C 355.721,172.651 352.221,181.651 348,190.5C 343.697,197.627 338.53,203.96 332.5,209.5C 339.236,254.274 321.57,285.107 279.5,302C 222.139,318.354 164.806,334.687 107.5,351C 68.652,357.656 39.152,344.156 19,310.5C 3.9171,276.195 9.58377,245.862 36,219.5C 30.8664,196.302 35.1997,174.635 49,154.5C 52.4031,150.886 55.9031,147.386 59.5,144C 53.05,106.101 65.8834,77.2678 98,57.5C 98.3333,57.8333 98.6667,58.1667 99,58.5C 100.333,57.1667 101.667,55.8333 103,54.5C 103.333,54.8333 103.667,55.1667 104,55.5C 106.862,54.0732 109.528,52.4065 112,50.5C 113.395,51.8146 114.395,51.4812 115,49.5C 115.414,49.9574 115.914,50.2907 116.5,50.5C 119.382,49.228 122.215,47.8947 125,46.5C 125.414,46.9574 125.914,47.2907 126.5,47.5C 130.674,45.7708 134.841,44.1041 139,42.5C 140.587,43.727 141.921,43.3937 143,41.5C 144.667,41.5 146.333,41.5 148,41.5C 148.354,39.1925 149.354,38.8592 151,40.5C 151.945,40.0946 152.612,39.428 153,38.5C 153.561,39.0219 154.228,39.3552 155,39.5C 159.394,37.8311 163.728,36.1644 168,34.5C 168.414,34.9574 168.914,35.2907 169.5,35.5C 172.281,34.0932 175.114,32.7599 178,31.5C 179.903,31.6938 181.737,31.6938 183.5,31.5C 184.914,30.376 186.414,29.376 188,28.5C 189.903,28.6938 191.737,28.6938 193.5,28.5C 198.103,27.095 202.603,25.4284 207,23.5C 207.414,23.9574 207.914,24.2907 208.5,24.5C 211.281,23.0932 214.114,21.7599 217,20.5C 218.903,20.6938 220.737,20.6938 222.5,20.5C 227.045,18.8944 231.545,17.2277 236,15.5C 238.184,16.1081 240.184,15.4414 242,13.5C 243.903,13.6938 245.737,13.6938 247.5,13.5C 251.796,11.7092 256.129,10.0425 260.5,8.5C 261.167,8.83333 261.833,9.16667 262.5,9.5C 265.382,8.22799 268.215,6.89465 271,5.5C 272.903,5.69378 274.737,5.69378 276.5,5.5C 279.281,4.09323 282.114,2.7599 285,1.5C 286.915,2.91556 288.415,2.58223 289.5,0.5 Z M 297.5,24.5 C 301.367,25.7295 305.2,25.7295 309,24.5C 310,25.1667 311,25.8333 312,26.5C 314.481,25.9783 316.814,25.9783 319,26.5C 321.333,27.8333 323.667,29.1667 326,30.5C 326.333,30.1667 326.667,29.8333 327,29.5C 328.985,30.4163 330.985,32.083 333,34.5C 333.333,34.1667 333.667,33.8333 334,33.5C 343.764,41.3984 350.931,51.0651 355.5,62.5C 355.291,63.086 354.957,63.586 354.5,64C 356.023,66.4343 357.023,69.101 357.5,72C 356.603,76.4496 356.603,80.7829 357.5,85C 356.643,85.6891 355.977,86.5224 355.5,87.5C 356.387,92.2607 355.053,96.4273 351.5,100C 351.833,100.333 352.167,100.667 352.5,101C 349.816,104.327 347.65,107.494 346,110.5C 327.698,83.7089 302.198,71.8756 269.5,75C 206.477,91.8249 144.143,109.325 82.5,127.5C 82.7076,125.08 82.3742,122.747 81.5,120.5C 82.0402,119.252 82.7069,118.085 83.5,117C 82.8686,114.645 82.8686,112.478 83.5,110.5C 90.0299,94.1322 101.697,82.2989 118.5,75C 122.089,74.1641 125.089,72.9975 127.5,71.5C 129.163,72.8754 130.497,72.542 131.5,70.5C 132.906,71.6682 134.072,71.3348 135,69.5C 137.398,69.9353 139.731,69.2687 142,67.5C 142.333,67.8333 142.667,68.1667 143,68.5C 146.033,67.289 149.033,65.9557 152,64.5C 153.856,64.2465 155.856,64.2465 158,64.5C 158.317,62.6992 158.984,62.3659 160,63.5C 162.343,62.8732 164.51,61.8732 166.5,60.5C 167.962,61.4709 169.295,61.1376 170.5,59.5C 171.086,59.7093 171.586,60.0426 172,60.5C 174.924,59.3495 177.757,58.0162 180.5,56.5C 181.167,56.8333 181.833,57.1667 182.5,57.5C 184.378,56.3578 186.212,55.3578 188,54.5C 189.667,54.5 191.333,54.5 193,54.5C 194.079,52.6063 195.413,52.273 197,53.5C 198.079,51.6063 199.413,51.273 201,52.5C 202.891,50.3467 205.057,49.68 207.5,50.5C 208.167,49.8333 208.833,49.1667 209.5,48.5C 211.263,48.3062 213.097,48.3062 215,48.5C 216.704,47.5474 218.37,46.5474 220,45.5C 221.856,45.2465 223.856,45.2465 226,45.5C 228.884,43.6244 231.717,42.2911 234.5,41.5C 236.263,41.3062 238.097,41.3062 240,41.5C 242.924,40.3495 245.757,39.0162 248.5,37.5C 250.156,39.0224 251.323,38.689 252,36.5C 252.333,36.8333 252.667,37.1667 253,37.5C 255.605,35.6805 258.272,35.0138 261,35.5C 262.079,33.6063 263.413,33.273 265,34.5C 267.785,33.1053 270.618,31.772 273.5,30.5C 274.167,30.8333 274.833,31.1667 275.5,31.5C 281.615,28.5227 287.449,26.5227 293,25.5C 294.755,26.6128 296.255,26.2795 297.5,24.5 Z M 273.5,98.5 C 295.895,97.3451 313.561,105.845 326.5,124C 323.753,126.748 320.087,128.914 315.5,130.5C 314.914,130.291 314.414,129.957 314,129.5C 311.555,130.906 309.055,132.24 306.5,133.5C 304.737,133.694 302.903,133.694 301,133.5C 293.965,137.161 286.965,139.161 280,139.5C 278.921,141.394 277.587,141.727 276,140.5C 273.215,141.895 270.382,143.228 267.5,144.5C 265.737,144.694 263.903,144.694 262,144.5C 259.114,145.76 256.281,147.093 253.5,148.5C 252.914,148.291 252.414,147.957 252,147.5C 248.883,149.284 245.55,150.617 242,151.5C 241.667,151.167 241.333,150.833 241,150.5C 240.047,152.592 238.714,152.925 237,151.5C 229.627,154.334 222.127,157.001 214.5,159.5C 212.737,159.694 210.903,159.694 209,159.5C 204.523,161.444 200.19,163.11 196,164.5C 195.228,164.355 194.561,164.022 194,163.5C 192.663,165.004 190.996,166.004 189,166.5C 187.475,166.888 185.808,166.888 184,166.5C 182.921,168.394 181.587,168.727 180,167.5C 178.333,168.5 176.667,169.5 175,170.5C 173.475,170.888 171.808,170.888 170,170.5C 167.227,171.926 164.393,173.26 161.5,174.5C 160.833,174.167 160.167,173.833 159.5,173.5C 153.526,176.364 147.86,178.198 142.5,179C 136.981,179.999 131.647,179.499 126.5,177.5C 122.71,178.077 119.21,177.077 116,174.5C 114.984,175.634 114.317,175.301 114,173.5C 113.586,173.957 113.086,174.291 112.5,174.5C 108.201,171.468 103.534,168.302 98.5,165C 95.5,160.833 92.5,156.667 89.5,152.5C 90.09,151.201 91.09,150.368 92.5,150C 152.091,132.168 212.424,115.001 273.5,98.5 Z M 297.5,161.5 C 299.68,160.883 301.68,159.883 303.5,158.5C 304.167,158.833 304.833,159.167 305.5,159.5C 309.604,157.574 313.77,155.908 318,154.5C 318.333,154.833 318.667,155.167 319,155.5C 320.079,153.606 321.413,153.273 323,154.5C 325,153.167 327,151.833 329,150.5C 330.572,149.919 332.405,149.919 334.5,150.5C 335.073,163.478 330.906,174.811 322,184.5C 314.895,175.557 306.728,167.89 297.5,161.5 Z M 94.5,192.5 C 82.5162,195.795 70.6829,199.795 59,204.5C 57.4804,190.171 60.9804,177.838 69.5,167.5C 76.5211,177.188 84.8545,185.521 94.5,192.5 Z M 249.5,174.5 C 271.76,172.966 289.427,181.133 302.5,199C 295.722,203.203 288.389,206.203 280.5,208C 227.122,222.888 173.456,237.888 119.5,253C 97.0596,254.777 79.7263,246.444 67.5,228C 67.6448,227.228 67.9781,226.561 68.5,226C 100.711,215.292 132.544,206.459 164,199.5C 166.928,198.162 169.928,196.829 173,195.5C 174.856,195.246 176.856,195.246 179,195.5C 180.945,193.819 182.945,193.152 185,193.5C 185.689,192.643 186.522,191.977 187.5,191.5C 189.378,191.623 191.211,191.623 193,191.5C 194.816,189.559 196.816,188.892 199,189.5C 203.333,187.833 207.667,186.167 212,184.5C 212.414,184.957 212.914,185.291 213.5,185.5C 214.749,183.525 216.249,183.191 218,184.5C 219.337,182.996 221.004,181.996 223,181.5C 224.525,181.112 226.192,181.112 228,181.5C 229.079,179.606 230.413,179.273 232,180.5C 234.886,179.24 237.719,177.907 240.5,176.5C 241.086,176.709 241.586,177.043 242,177.5C 244.378,176.033 246.878,175.033 249.5,174.5 Z M 307.5,223.5 C 308.5,223.5 309.5,223.5 310.5,223.5C 311.948,242.17 305.282,257.17 290.5,268.5C 280.597,275.839 269.764,280.506 258,282.5C 241.001,288.109 223.834,293.442 206.5,298.5C 186.865,303.615 167.365,308.949 148,314.5C 132.469,318.924 116.969,323.424 101.5,328C 80.3285,331.969 62.1619,325.803 47,309.5C 34.4623,293.047 31.7957,274.714 39,254.5C 40.8518,249.977 43.5184,245.977 47,242.5C 70.4166,273.417 100.917,283.583 138.5,273C 191.227,258.225 244.227,243.225 297.5,228C 301.042,226.725 304.375,225.225 307.5,223.5 Z"/></g>
<g><path style="opacity:0.996" fill="#040028" d="M 1993.5,45.5 C 2006.37,53.3693 2017.37,63.3693 2026.5,75.5C 2026.5,76.1667 2026.83,76.5 2027.5,76.5C 2035.46,89.2669 2040.79,103.1 2043.5,118C 2043.65,156.294 2043.49,194.794 2043,233.5C 2039.94,251.215 2033.1,267.215 2022.5,281.5C 2021.83,281.5 2021.5,281.833 2021.5,282.5C 2004.11,301.862 1982.45,313.362 1956.5,317C 1850.5,317.667 1744.5,317.667 1638.5,317C 1593.52,309.354 1565.02,283.521 1553,239.5C 1552.67,236.833 1552.33,234.167 1552,231.5C 1551.05,191.474 1551.38,151.474 1553,111.5C 1558.39,88.7162 1569.89,69.7162 1587.5,54.5C 1587.94,52.9256 1588.94,51.7589 1590.5,51C 1604.44,41.8843 1620.11,36.2177 1637.5,34C 1745.17,33.3333 1852.83,33.3333 1960.5,34C 1966.56,35.1497 1972.56,36.483 1978.5,38C 1983.93,40.049 1988.93,42.549 1993.5,45.5 Z"/></g>
<g><path style="opacity:0.096" fill="#000001" d="M 1993.5,45.5 C 2008.2,52.1983 2020.2,62.1983 2029.5,75.5C 2038.39,88.9971 2044.39,103.997 2047.5,120.5C 2047.5,160.167 2047.5,199.833 2047.5,239.5C 2038.51,284.327 2011.84,312.493 1967.5,324C 1856.19,325.648 1744.85,325.981 1633.5,325C 1599.94,318.971 1574.94,301.638 1558.5,273C 1559.63,271.984 1559.3,271.317 1557.5,271C 1558.63,269.984 1558.3,269.317 1556.5,269C 1556.5,268 1556.5,267 1556.5,266C 1552.22,257.804 1549.39,248.637 1548,238.5C 1547.03,197.134 1547.37,155.801 1549,114.5C 1554.04,90.5304 1565.88,70.8638 1584.5,55.5C 1585.32,54.6143 1586.32,54.281 1587.5,54.5C 1569.89,69.7162 1558.39,88.7162 1553,111.5C 1551.38,151.474 1551.05,191.474 1552,231.5C 1552.33,234.167 1552.67,236.833 1553,239.5C 1565.02,283.521 1593.52,309.354 1638.5,317C 1744.5,317.667 1850.5,317.667 1956.5,317C 1982.45,313.362 2004.11,301.862 2021.5,282.5C 2022.17,282.5 2022.5,282.167 2022.5,281.5C 2033.1,267.215 2039.94,251.215 2043,233.5C 2043.49,194.794 2043.65,156.294 2043.5,118C 2040.79,103.1 2035.46,89.2669 2027.5,76.5C 2026.83,76.5 2026.5,76.1667 2026.5,75.5C 2017.37,63.3693 2006.37,53.3693 1993.5,45.5 Z"/></g>
<g><path style="opacity:0.927" fill="#fefffe" d="M 507.5,91.5 C 514.808,91.7501 521.975,92.7501 529,94.5C 547.638,96.944 561.638,106.944 571,124.5C 573.994,131.668 576.161,138.834 577.5,146C 577.167,146.333 576.833,146.667 576.5,147C 577.201,153.013 578.201,159.013 579.5,165C 579.764,170.833 579.098,176.666 577.5,182.5C 577.54,184.429 577.873,186.262 578.5,188C 578.043,188.414 577.709,188.914 577.5,189.5C 540.839,190.5 504.173,190.833 467.5,190.5C 467.723,193.784 468.39,196.951 469.5,200C 467.964,203.24 468.297,206.24 470.5,209C 471.226,223.375 477.726,233.542 490,239.5C 493.357,240.066 496.524,241.066 499.5,242.5C 501.701,241.131 503.701,241.298 505.5,243C 509,243.167 512.5,243.333 516,243.5C 534.983,242.866 553.817,241.866 572.5,240.5C 573.723,247.877 573.556,255.211 572,262.5C 568.837,261.081 565.837,261.415 563,263.5C 559.818,262.085 556.818,262.419 554,264.5C 552.538,264.006 551.038,263.673 549.5,263.5C 542.437,264.231 535.271,265.231 528,266.5C 526.856,266.089 525.689,265.756 524.5,265.5C 516.584,267.328 508.584,267.828 500.5,267C 499.048,265.483 497.548,265.316 496,266.5C 486.474,264.659 477.307,261.659 468.5,257.5C 464.405,254.651 460.739,251.317 457.5,247.5C 453.258,241.905 449.925,236.072 447.5,230C 447.833,229.667 448.167,229.333 448.5,229C 446.437,227.428 445.771,225.595 446.5,223.5C 445.736,221.039 444.736,218.539 443.5,216C 443.833,215.667 444.167,215.333 444.5,215C 443.095,211.613 442.095,208.28 441.5,205C 442.735,200.783 442.402,196.616 440.5,192.5C 441.833,184.833 441.833,177.167 440.5,169.5C 442.402,165.384 442.735,161.217 441.5,157C 442.167,156 442.833,155 443.5,154C 443.5,151.667 443.5,149.333 443.5,147C 445.527,145.604 445.86,143.938 444.5,142C 446.11,139.689 447.443,137.189 448.5,134.5C 452.071,122.259 459.071,112.093 469.5,104C 476.154,99.8275 482.987,96.9941 490,95.5C 495.865,94.0796 501.698,92.7463 507.5,91.5 Z M 509.5,114.5 C 512.601,114.692 515.601,115.358 518.5,116.5C 520.969,114.993 523.135,115.327 525,117.5C 525.414,117.043 525.914,116.709 526.5,116.5C 532.888,118.898 538.388,122.564 543,127.5C 547.553,134.126 549.719,140.96 549.5,148C 550,148.5 550.5,149 551,149.5C 551.898,155.89 552.065,162.224 551.5,168.5C 523.498,168.667 495.498,168.5 467.5,168C 467.757,162.654 468.257,157.154 469,151.5C 470.756,150.579 470.923,149.412 469.5,148C 471.026,141.667 473.693,135.501 477.5,129.5C 480.024,127.81 482.024,125.643 483.5,123C 487.587,120.29 491.92,118.123 496.5,116.5C 497.675,117.855 498.675,117.688 499.5,116C 503.025,115.821 506.359,115.321 509.5,114.5 Z"/></g>
<g><path style="opacity:0.929" fill="#fefefe" d="M 662.5,91.5 C 673.032,92.4049 683.532,93.4049 694,94.5C 694.561,93.9781 695.228,93.6448 696,93.5C 698.926,95.7151 702.092,96.0484 705.5,94.5C 708.301,96.5261 711.301,96.8594 714.5,95.5C 717.71,97.4757 721.043,98.1424 724.5,97.5C 725.478,97.9767 726.311,98.6433 727,99.5C 727.236,101.764 727.736,103.931 728.5,106C 727.529,111.072 727.195,116.238 727.5,121.5C 724.496,120.332 721.496,120.332 718.5,121.5C 715.832,119.531 712.999,119.198 710,120.5C 701.413,118.609 692.913,117.276 684.5,116.5C 675.82,117.729 667.153,117.729 658.5,116.5C 651.239,117.503 644.573,120.503 638.5,125.5C 632.013,135.419 631.847,145.085 638,154.5C 641.036,156.172 644.036,157.839 647,159.5C 648.525,159.888 650.192,159.888 652,159.5C 655.32,161.242 658.486,162.575 661.5,163.5C 662.167,163.167 662.833,162.833 663.5,162.5C 668.166,164.309 673,165.642 678,166.5C 678.414,166.043 678.914,165.709 679.5,165.5C 681.092,167.562 682.925,167.895 685,166.5C 688.806,168.221 692.473,169.555 696,170.5C 697.406,169.332 698.572,169.665 699.5,171.5C 700.086,171.291 700.586,170.957 701,170.5C 703.179,171.762 705.345,173.095 707.5,174.5C 717.586,176.701 725.086,182.701 730,192.5C 730.608,196.405 731.775,200.072 733.5,203.5C 733.407,211.506 733.407,219.506 733.5,227.5C 731.907,231.385 730.24,235.218 728.5,239C 728.833,239.333 729.167,239.667 729.5,240C 727.375,243.138 725.208,246.304 723,249.5C 719.731,251.136 717.064,253.469 715,256.5C 714.667,256.167 714.333,255.833 714,255.5C 710.882,258.01 707.382,260.01 703.5,261.5C 700.674,261.824 698.174,262.824 696,264.5C 693.956,263.228 692.122,263.561 690.5,265.5C 689.914,265.291 689.414,264.957 689,264.5C 685.889,265.961 682.723,266.294 679.5,265.5C 671.306,268.107 663.14,268.107 655,265.5C 650,265.5 645,265.5 640,265.5C 637.385,263.411 634.551,263.078 631.5,264.5C 628.79,262.52 625.957,262.186 623,263.5C 622.147,261.875 621.147,261.542 620,262.5C 618,261.833 616,261.167 614,260.5C 611.09,261.138 609.256,259.805 608.5,256.5C 610.605,250.579 610.938,244.579 609.5,238.5C 610.328,237.585 611.328,236.919 612.5,236.5C 615.162,238.544 617.995,238.877 621,237.5C 623.615,239.589 626.449,239.922 629.5,238.5C 637.606,240.365 645.606,241.698 653.5,242.5C 662.206,242.035 670.873,242.035 679.5,242.5C 683.286,241.943 687.286,240.943 691.5,239.5C 703.59,235.267 708.757,225.933 707,211.5C 706.203,208.78 705.037,206.28 703.5,204C 703.833,203.667 704.167,203.333 704.5,203C 696.952,195.91 688.452,192.41 679,192.5C 676.566,190.977 673.899,189.977 671,189.5C 668.693,188.855 666.193,188.855 663.5,189.5C 657.297,187.786 651.13,186.12 645,184.5C 643.297,185.7 641.797,185.367 640.5,183.5C 639.914,183.709 639.414,184.043 639,184.5C 632.808,181.6 626.641,178.6 620.5,175.5C 613.498,170.203 609.331,162.87 608,153.5C 607.333,145.167 607.333,136.833 608,128.5C 608.093,125.993 608.926,123.826 610.5,122C 610.167,121.667 609.833,121.333 609.5,121C 613.601,114.565 618.434,108.732 624,103.5C 624.333,103.833 624.667,104.167 625,104.5C 627.774,101.642 630.774,99.9753 634,99.5C 637.312,97.6828 640.646,96.0161 644,94.5C 644.561,95.0219 645.228,95.3552 646,95.5C 649.122,93.1102 652.456,92.4436 656,93.5C 658.484,93.5033 660.651,92.8366 662.5,91.5 Z"/></g>
<g><path style="opacity:0.927" fill="#fefffe" d="M 827.5,91.5 C 833.117,91.2782 838.617,91.9448 844,93.5C 846.942,92.0051 849.609,92.3385 852,94.5C 855.134,95.2353 858.467,95.2353 862,94.5C 864.615,96.589 867.449,96.9223 870.5,95.5C 872.882,97.0707 875.549,97.904 878.5,98C 879.059,98.7247 879.392,99.5581 879.5,100.5C 877.897,106.732 877.231,113.065 877.5,119.5C 868.763,118.636 860.263,117.636 852,116.5C 843.592,117.298 835.259,117.298 827,116.5C 803.761,119.505 792.261,132.671 792.5,156C 791.707,157.085 791.04,158.252 790.5,159.5C 791.161,170.125 791.161,180.625 790.5,191C 790.667,193.833 790.833,196.667 791,199.5C 792.687,201.168 792.854,203.001 791.5,205C 791.493,206.812 792.16,208.312 793.5,209.5C 793.612,223.201 799.946,233.035 812.5,239C 817.346,239.733 822.013,240.899 826.5,242.5C 833.52,242.343 840.52,242.343 847.5,242.5C 850.32,242.422 852.987,241.755 855.5,240.5C 856.554,240.68 857.554,241.013 858.5,241.5C 864.951,240.461 871.284,239.795 877.5,239.5C 877.841,243.709 878.508,247.875 879.5,252C 879.064,255.218 878.398,258.384 877.5,261.5C 875.569,263.204 873.569,263.538 871.5,262.5C 869.726,262.887 868.059,263.553 866.5,264.5C 863.012,263.08 859.678,263.414 856.5,265.5C 855.914,265.291 855.414,264.957 855,264.5C 847.01,265.347 839.01,266.347 831,267.5C 824.738,266.371 818.405,265.371 812,264.5C 795.644,262.957 782.977,254.957 774,240.5C 771.117,234.448 768.617,228.281 766.5,222C 767.86,220.062 767.527,218.396 765.5,217C 765.833,216.667 766.167,216.333 766.5,216C 766.001,212.651 765.001,209.484 763.5,206.5C 764.686,201.775 764.352,197.109 762.5,192.5C 762.542,183.333 762.542,174.166 762.5,165C 764.326,160.902 764.659,156.735 763.5,152.5C 765.066,150.038 765.399,147.538 764.5,145C 765.764,143.139 766.764,141.139 767.5,139C 767.475,137.012 767.475,135.012 767.5,133C 768.833,130.667 770.167,128.333 771.5,126C 771.167,125.667 770.833,125.333 770.5,125C 776.327,114.161 784.827,105.328 796,98.5C 796.333,98.8333 796.667,99.1667 797,99.5C 799,98.1667 801,96.8333 803,95.5C 805.012,95.4754 807.012,95.4754 809,95.5C 812.375,92.9233 816.042,92.2566 820,93.5C 822.76,93.3538 825.26,92.6872 827.5,91.5 Z"/></g>
<g><path style="opacity:0.939" fill="#fefefe" d="M 972.5,91.5 C 980.557,91.1553 988.39,92.1553 996,94.5C 1004.77,95.1478 1012.77,98.8145 1020,105.5C 1027.4,114.255 1031.9,124.422 1033.5,136C 1032.34,168.47 1032.18,200.97 1033,233.5C 1034.15,237.484 1036.48,240.484 1040,242.5C 1040.33,242.167 1040.67,241.833 1041,241.5C 1043.76,243.201 1046.76,244.534 1050,245.5C 1050.33,245.167 1050.67,244.833 1051,244.5C 1051.32,249.852 1051.82,255.186 1052.5,260.5C 1052.31,262.577 1051.81,264.577 1051,266.5C 1047.18,267.859 1043.52,267.526 1040,265.5C 1038.89,265.585 1037.89,265.919 1037,266.5C 1034.79,265.35 1032.62,264.35 1030.5,263.5C 1029.91,263.709 1029.41,264.043 1029,264.5C 1026.04,262.839 1023.04,261.172 1020,259.5C 1019.67,259.833 1019.33,260.167 1019,260.5C 1016,258.167 1013.33,255.5 1011,252.5C 1005.98,255.91 1000.65,258.577 995,260.5C 994.586,260.043 994.086,259.709 993.5,259.5C 988.892,261.376 984.226,263.043 979.5,264.5C 977.139,263.224 974.972,263.558 973,265.5C 972.667,265.167 972.333,264.833 972,264.5C 965.297,265.208 958.463,266.208 951.5,267.5C 948.546,267.709 945.879,267.042 943.5,265.5C 940.043,266.142 936.71,265.476 933.5,263.5C 932.914,263.709 932.414,264.043 932,264.5C 921.668,259.652 914.002,252.652 909,243.5C 907.411,238.929 905.911,234.762 904.5,231C 904.833,230.667 905.167,230.333 905.5,230C 903.107,219.108 903.441,208.275 906.5,197.5C 905.332,196.094 905.665,194.928 907.5,194C 910.653,184.704 916.819,177.537 926,172.5C 933.114,169.878 939.947,167.544 946.5,165.5C 947.086,165.709 947.586,166.043 948,166.5C 956.101,165.524 964.268,164.19 972.5,162.5C 974.307,162.972 976.14,163.306 978,163.5C 986.339,162.471 994.839,161.137 1003.5,159.5C 1004.74,160.246 1006.07,160.579 1007.5,160.5C 1008,148.963 1006.5,137.963 1003,127.5C 1000.49,125.321 998.322,122.821 996.5,120C 993.471,119.215 990.638,118.049 988,116.5C 985.787,117.739 983.787,117.406 982,115.5C 979.267,116.087 976.434,116.087 973.5,115.5C 954.082,117.202 934.749,118.869 915.5,120.5C 914.681,115.299 913.681,110.132 912.5,105C 912.826,102.516 913.826,100.349 915.5,98.5C 916.293,98.9312 917.127,99.2645 918,99.5C 922.679,98.4921 927.512,97.1587 932.5,95.5C 935.219,96.8624 937.719,96.5291 940,94.5C 941.301,94.9602 942.634,95.2935 944,95.5C 949.54,93.1195 955.206,92.4528 961,93.5C 965.068,93.4065 968.901,92.7398 972.5,91.5 Z M 1000.5,180.5 C 1002.83,180.5 1005.17,180.5 1007.5,180.5C 1007.83,198.179 1007.5,215.846 1006.5,233.5C 1002.88,235.289 999.213,236.955 995.5,238.5C 994.833,238.167 994.167,237.833 993.5,237.5C 990.266,239.514 986.766,240.848 983,241.5C 982.586,241.043 982.086,240.709 981.5,240.5C 979.751,242.531 977.751,242.865 975.5,241.5C 972.083,243.795 968.416,244.128 964.5,242.5C 959.586,244.864 954.752,244.864 950,242.5C 945.83,243.549 942.497,242.216 940,238.5C 939.667,238.833 939.333,239.167 939,239.5C 936.065,234.896 933.565,230.063 931.5,225C 932.953,223.287 932.786,221.787 931,220.5C 930.889,217.355 930.722,214.355 930.5,211.5C 930.555,206.666 931.889,202 934.5,197.5C 938.123,191.969 942.79,188.469 948.5,187C 952.866,186.772 957.033,185.939 961,184.5C 966.732,183.815 972.565,183.815 978.5,184.5C 980.055,184.278 981.389,183.611 982.5,182.5C 987.259,182.405 992.092,182.405 997,182.5C 998.459,182.192 999.626,181.525 1000.5,180.5 Z"/></g>
<g><path style="opacity:0.943" fill="#fefefe" d="M 1152.5,91.5 C 1159.47,92.3083 1166.47,93.1416 1173.5,94C 1195.52,100.544 1208.19,114.877 1211.5,137C 1213.56,138.018 1213.9,139.351 1212.5,141C 1212.95,142.285 1213.62,143.452 1214.5,144.5C 1214.5,147.5 1214.5,150.5 1214.5,153.5C 1215.17,154.833 1215.83,156.167 1216.5,157.5C 1216.45,171.698 1216.45,185.865 1216.5,200C 1215.83,201.333 1215.17,202.667 1214.5,204C 1214.45,206.801 1214.45,209.634 1214.5,212.5C 1211.38,223.379 1207.22,233.712 1202,243.5C 1197.23,248.943 1191.9,253.61 1186,257.5C 1180.66,259.967 1175.33,262.3 1170,264.5C 1169.44,263.978 1168.77,263.645 1168,263.5C 1159.11,265.37 1150.11,266.704 1141,267.5C 1133.3,266.108 1125.63,265.108 1118,264.5C 1117.44,265.022 1116.77,265.355 1116,265.5C 1112.93,264.263 1109.93,263.263 1107,262.5C 1106.5,287.164 1106.33,311.831 1106.5,336.5C 1097.79,336.559 1089.29,336.559 1081,336.5C 1080.5,256.501 1080.33,176.501 1080.5,96.5C 1089.17,96.5 1097.83,96.5 1106.5,96.5C 1106.71,99.6075 1106.71,102.441 1106.5,105C 1107,105.5 1107.5,106 1108,106.5C 1115.66,102.564 1122.99,98.8972 1130,95.5C 1131.59,96.727 1132.92,96.3937 1134,94.5C 1134.56,95.0219 1135.23,95.3552 1136,95.5C 1141.53,94.0708 1147.03,92.7375 1152.5,91.5 Z M 1140.5,116.5 C 1146.84,117.668 1153.17,117.668 1159.5,116.5C 1168.5,118.912 1175.66,123.912 1181,131.5C 1181.5,134.185 1182.67,136.519 1184.5,138.5C 1184.29,139.086 1183.96,139.586 1183.5,140C 1184.89,141.171 1185.73,142.671 1186,144.5C 1189.3,160.819 1190.3,177.819 1189,195.5C 1187.26,197.531 1187.09,199.698 1188.5,202C 1187.05,210.287 1184.38,218.454 1180.5,226.5C 1176.48,232.052 1171.82,236.218 1166.5,239C 1162.66,240.281 1159.16,241.447 1156,242.5C 1154.45,241.316 1152.95,241.483 1151.5,243C 1144.5,243.667 1137.5,243.667 1130.5,243C 1128.37,241.502 1126.04,241.336 1123.5,242.5C 1118.8,241.56 1114.13,240.56 1109.5,239.5C 1108.91,239.709 1108.41,240.043 1108,240.5C 1106.84,221.98 1106.34,203.314 1106.5,184.5C 1106.83,166.167 1107.17,147.833 1107.5,129.5C 1110.09,127.957 1112.59,126.291 1115,124.5C 1115.33,124.833 1115.67,125.167 1116,125.5C 1119.39,123.61 1122.89,121.943 1126.5,120.5C 1127.09,120.709 1127.59,121.043 1128,121.5C 1131.06,119.675 1134.4,118.341 1138,117.5C 1139.46,118.883 1140.29,118.549 1140.5,116.5 Z"/></g>
<g><path style="opacity:0.928" fill="#fefffe" d="M 1313.5,91.5 C 1321.2,91.4505 1328.7,92.4505 1336,94.5C 1336.33,94.1667 1336.67,93.8333 1337,93.5C 1339.33,94.5 1341.67,95.5 1344,96.5C 1349.9,98.2243 1355.73,100.891 1361.5,104.5C 1366.29,109.231 1370.62,113.731 1374.5,118C 1373.74,119.364 1374.24,120.531 1376,121.5C 1377.79,126.895 1379.95,132.061 1382.5,137C 1381.14,138.938 1381.47,140.604 1383.5,142C 1383,145.507 1383.67,149.007 1385.5,152.5C 1384.91,154.273 1384.58,156.106 1384.5,158C 1385.38,162.355 1386.04,166.522 1386.5,170.5C 1384.28,175.179 1383.95,180.013 1385.5,185C 1385,186.5 1384.5,188 1384,189.5C 1347.57,190.496 1311.07,190.83 1274.5,190.5C 1275.53,192.864 1275.53,195.197 1274.5,197.5C 1275.96,200.482 1276.29,203.482 1275.5,206.5C 1275.76,208.187 1276.43,209.687 1277.5,211C 1276.98,211.561 1276.64,212.228 1276.5,213C 1279.39,223.647 1285.22,232.147 1294,238.5C 1294.33,238.167 1294.67,237.833 1295,237.5C 1295.39,238.428 1296.05,239.095 1297,239.5C 1312.39,244.001 1328.22,244.668 1344.5,241.5C 1351.13,243.072 1357.63,242.738 1364,240.5C 1368.49,241.131 1372.99,240.797 1377.5,239.5C 1378.09,239.709 1378.59,240.043 1379,240.5C 1379.19,247.081 1379.69,253.581 1380.5,260C 1374.04,262.35 1367.54,263.85 1361,264.5C 1356.71,263.089 1352.54,263.422 1348.5,265.5C 1347.83,265.167 1347.17,264.833 1346.5,264.5C 1336.03,264.951 1325.53,265.951 1315,267.5C 1308.7,266.571 1302.37,265.571 1296,264.5C 1295.67,264.833 1295.33,265.167 1295,265.5C 1293.81,263.475 1292.31,263.141 1290.5,264.5C 1287.24,262.905 1284.07,261.239 1281,259.5C 1280.67,259.833 1280.33,260.167 1280,260.5C 1268.3,252.846 1259.8,243.012 1254.5,231C 1254.83,230.667 1255.17,230.333 1255.5,230C 1254.17,227.333 1252.83,224.667 1251.5,222C 1252.81,220.249 1252.48,218.749 1250.5,217.5C 1251.86,215.249 1251.53,213.249 1249.5,211.5C 1250.04,206.99 1249.37,202.49 1247.5,198C 1248.78,186.544 1248.78,175.378 1247.5,164.5C 1248.97,160.433 1249.97,156.266 1250.5,152C 1250.17,151.667 1249.83,151.333 1249.5,151C 1251.53,149.604 1251.86,147.938 1250.5,146C 1252.53,144.604 1252.86,142.938 1251.5,141C 1254.17,135.665 1256.83,130.331 1259.5,125C 1259.17,124.667 1258.83,124.333 1258.5,124C 1267.29,110.016 1279.46,100.183 1295,94.5C 1295.56,95.0219 1296.23,95.3552 1297,95.5C 1302.53,94.0708 1308.03,92.7375 1313.5,91.5 Z M 1316.5,114.5 C 1325.39,115.061 1333.73,116.895 1341.5,120C 1348.04,125.514 1353.04,132.681 1356.5,141.5C 1355.4,143.513 1355.74,145.346 1357.5,147C 1356.32,148.548 1356.48,150.048 1358,151.5C 1358.5,157.157 1358.67,162.824 1358.5,168.5C 1330.5,168.5 1302.5,168.5 1274.5,168.5C 1274.79,165.166 1274.79,162 1274.5,159C 1275.29,155.512 1276.29,152.012 1277.5,148.5C 1278.49,134.218 1285.99,123.884 1300,117.5C 1300.33,117.833 1300.67,118.167 1301,118.5C 1301.68,116.311 1302.84,115.978 1304.5,117.5C 1308.43,115.982 1312.43,114.982 1316.5,114.5 Z"/></g>
<g><path style="opacity:1" fill="#f8f8f9" d="M 1758.5,135.5 C 1790.75,131.746 1805.75,146.079 1803.5,178.5C 1805.68,214.904 1789.01,229.071 1753.5,221C 1744.33,217.162 1738.83,210.329 1737,200.5C 1734.08,187.245 1733.75,173.911 1736,160.5C 1738.85,147.827 1746.35,139.494 1758.5,135.5 Z"/></g>
<g><path style="opacity:1" fill="#f7f7f8" d="M 1838.5,135.5 C 1849.92,135.114 1861.25,135.781 1872.5,137.5C 1872.5,141.5 1872.5,145.5 1872.5,149.5C 1865.52,148.714 1858.52,148.047 1851.5,147.5C 1842.5,146.737 1836.34,150.404 1833,158.5C 1831.02,172.494 1831.02,186.494 1833,200.5C 1836.91,208.705 1843.41,212.039 1852.5,210.5C 1859.17,210.166 1865.84,209.833 1872.5,209.5C 1872.5,213.167 1872.5,216.833 1872.5,220.5C 1860.6,223.641 1848.6,224.141 1836.5,222C 1829.35,219.689 1824.18,215.189 1821,208.5C 1816.3,192.074 1815.3,175.407 1818,158.5C 1820.16,146.516 1826.99,138.849 1838.5,135.5 Z"/></g>
<g><path style="opacity:1" fill="#f8f7f9" d="M 1900.5,135.5 C 1913.23,135.182 1925.9,135.849 1938.5,137.5C 1938.17,141.5 1937.83,145.5 1937.5,149.5C 1926.56,147.77 1915.56,147.27 1904.5,148C 1897.87,151.097 1895.7,156.264 1898,163.5C 1899.17,164.667 1900.33,165.833 1901.5,167C 1910.05,170.304 1918.71,173.304 1927.5,176C 1936.48,179.824 1940.81,186.657 1940.5,196.5C 1940.63,211.533 1933.3,220.366 1918.5,223C 1907.07,223.526 1895.74,222.693 1884.5,220.5C 1884.5,216.833 1884.5,213.167 1884.5,209.5C 1895.16,210.21 1905.83,210.377 1916.5,210C 1924.41,207.363 1927.57,201.863 1926,193.5C 1925.22,191.714 1924.05,190.214 1922.5,189C 1912.28,185.927 1902.28,182.26 1892.5,178C 1888.21,175.708 1885.38,172.208 1884,167.5C 1879.84,151.568 1885.34,140.901 1900.5,135.5 Z"/></g>
<g><path style="opacity:1" fill="#fbfbfb" d="M 1658.5,136.5 C 1671.84,136.333 1685.17,136.5 1698.5,137C 1711.55,140.049 1719.05,148.216 1721,161.5C 1723.77,177.988 1722.11,193.988 1716,209.5C 1711.54,215.983 1705.38,219.816 1697.5,221C 1684.5,221.5 1671.5,221.667 1658.5,221.5C 1658.5,193.167 1658.5,164.833 1658.5,136.5 Z"/></g>
<g><path style="opacity:1" fill="#060229" d="M 1761.5,147.5 C 1778.05,144.335 1787.21,151.002 1789,167.5C 1789.67,175.5 1789.67,183.5 1789,191.5C 1786.95,207.957 1777.78,214.124 1761.5,210C 1754.25,207.057 1750.42,201.557 1750,193.5C 1749.33,183.5 1749.33,173.5 1750,163.5C 1751.18,156.108 1755.01,150.775 1761.5,147.5 Z"/></g>
<g><path style="opacity:1" fill="#040128" d="M 1672.5,148.5 C 1679.17,148.334 1685.84,148.5 1692.5,149C 1701.29,149.792 1706.13,154.625 1707,163.5C 1707.87,174.217 1707.54,184.884 1706,195.5C 1704.82,203.342 1700.32,207.842 1692.5,209C 1685.84,209.5 1679.17,209.666 1672.5,209.5C 1672.5,189.167 1672.5,168.833 1672.5,148.5 Z"/></g>
</svg>
