<svg width="2106" height="366" viewBox="0 0 2106 366" fill="none" xmlns="http://www.w3.org/2000/svg">
<g clip-path="url(#clip0_2_21)">
<path d="M572.4 250.6L582.4 249.6L583.1 269.9C556.9 273.6 534.5 275.4 515.9 275.4C491.1 275.4 473.5 268.2 463.2 253.9C452.9 239.5 447.7 217.2 447.7 186.8C447.7 126.4 471.7 96.1 519.8 96.1C543 96.1 560.4 102.6 571.9 115.6C583.4 128.6 589.1 149 589.1 176.8L587.7 196.5H473.8C473.8 215.6 477.2 229.7 484.1 238.9C491 248.1 503 252.7 520.1 252.7C537.3 252.7 554.7 252 572.4 250.6ZM563.1 175.8C563.1 154.7 559.7 139.7 552.9 131C546.1 122.3 535.1 117.9 519.8 117.9C504.5 117.9 493 122.5 485.3 131.7C477.6 140.9 473.6 155.6 473.4 175.8H563.1Z" fill="#050028"/>
<path d="M683.4 119.2C658.3 119.2 645.8 127.9 645.8 145.4C645.8 153.4 648.7 159.1 654.4 162.5C660.1 165.8 673.2 169.3 693.7 172.8C714.2 176.4 728.6 181.4 737.1 187.8C745.6 194.2 749.9 206.3 749.9 224C749.9 241.7 744.2 254.7 732.8 263C721.4 271.3 704.8 275.4 683 275.4C668.7 275.4 652 273.8 632.7 270.6L622.4 268.9L623.8 246.5C650 250.4 669.8 252.4 683.1 252.4C696.4 252.4 706.6 250.3 713.6 246C720.6 241.7 724.1 234.6 724.1 224.6C724.1 214.6 721.1 207.8 715.1 204.3C709.1 200.7 696 197.4 675.8 194.1C655.6 190.9 641.2 186.2 632.7 180C624.2 173.8 619.9 162.3 619.9 145.5C619.9 128.7 625.8 116.3 637.7 108.3C649.5 100.3 664.3 96.2 682 96.2C696 96.2 713.6 97.8 734.7 101L744.4 102.7L743.7 124.8C718.2 121.1 698.1 119.2 683.4 119.2Z" fill="#050028"/>
<path d="M854.1 96.1C861.7 96.1 874.6 97.5 892.7 100.2L901 101.2L900 122.2C881.6 120.1 868.1 119.1 859.3 119.1C839.8 119.1 826.5 123.8 819.5 133.1C812.5 142.4 809 159.6 809 184.8C809 210 812.3 227.5 818.8 237.4C825.4 247.3 839 252.2 859.7 252.2L900.4 249.1L901.4 270.5C880 273.7 864 275.3 853.5 275.3C826.6 275.3 808 268.4 797.8 254.6C787.6 240.8 782.5 217.5 782.5 184.8C782.5 152.1 788 129.1 799 115.9C809.9 102.7 828.3 96.1 854.1 96.1Z" fill="#050028"/>
<path d="M1061.6 151.6V239.9C1062.3 248.4 1069 253.5 1081.6 255.1L1080.6 275.4C1062.4 275.4 1048.8 270.8 1039.6 261.6C1018.9 270.8 998.2 275.4 977.5 275.4C961.6 275.4 949.6 270.9 941.3 262C933 253 928.9 240.2 928.9 223.4C928.9 206.6 933.2 194.3 941.7 186.3C950.2 178.4 963.5 173.5 981.7 171.7L1035.8 166.5V151.7C1035.8 140 1033.3 131.6 1028.2 126.5C1023.1 121.4 1016.2 118.9 1007.5 118.9C989.1 118.9 970 120.1 950.3 122.3L939.6 123.3L938.6 103.6C963.9 98.5 986.3 96 1005.8 96C1025.3 96 1039.5 100.5 1048.4 109.4C1057.2 118.5 1061.6 132.6 1061.6 151.6ZM955.4 222C955.4 243.1 964.1 253.7 981.6 253.7C997.2 253.7 1012.6 251.1 1027.8 245.8L1035.7 243V186.1L984.7 190.9C974.4 191.8 966.9 194.8 962.3 199.9C957.7 205 955.4 212.3 955.4 222Z" fill="#050028"/>
<path d="M1112.6 348.5V99.6H1138.1V112C1155.6 101.4 1172.8 96.1 1189.8 96.1C1211.6 96.1 1227.5 103.1 1237.4 117C1247.3 130.9 1252.2 153.8 1252.2 185.8C1252.2 217.7 1246.4 240.7 1234.8 254.6C1223.2 268.5 1203.9 275.5 1177.1 275.5C1163.1 275.5 1150.2 274.2 1138.5 271.7V348.6H1112.6V348.5ZM1186.1 119.2C1179.2 119.2 1171.8 120.4 1163.9 122.6C1156 124.9 1149.7 127.2 1145.1 129.5L1138.5 132.9V249.1C1154.8 251.6 1167.2 252.9 1175.7 252.9C1194.3 252.9 1207.4 247.6 1214.8 237C1222.3 226.4 1226 209.2 1226 185.3C1226 161.4 1222.6 144.4 1215.8 134.3C1209.1 124.3 1199.2 119.2 1186.1 119.2Z" fill="#050028"/>
<path d="M1411.5 250.6L1421.5 249.6L1422.2 269.9C1396 273.6 1373.6 275.4 1355 275.4C1330.2 275.4 1312.6 268.2 1302.3 253.9C1292 239.5 1286.8 217.2 1286.8 186.8C1286.8 126.4 1310.8 96.1 1358.9 96.1C1382.1 96.1 1399.5 102.6 1411 115.6C1422.5 128.6 1428.2 149 1428.2 176.8L1426.8 196.5H1313C1313 215.6 1316.4 229.7 1323.3 238.9C1330.2 248.1 1342.2 252.7 1359.3 252.7C1376.4 252.7 1393.8 252 1411.5 250.6ZM1402.2 175.8C1402.2 154.7 1398.8 139.7 1392 131C1385.2 122.3 1374.2 117.9 1358.9 117.9C1343.6 117.9 1332.1 122.5 1324.4 131.7C1316.7 140.9 1312.7 155.6 1312.5 175.8H1402.2Z" fill="#050028"/>
<path d="M129 209.9C84.6 209.9 48.5 173.8 48.5 129.4C48.5 92.9 74 61.9 113.6 50.5C144.5 41.6 274.4 5.4 279.9 3.8C281.3 3.4 282.6 3.00001 284 2.60001C284.1 2.60001 284.2 2.5 284.3 2.5C290.6 0.9 297.1 0.100006 303.7 0.100006C348.1 0.100006 384.2 36.2 384.2 80.6C384.2 117.6 359 147.2 316.8 159.9L154.2 205.8C151.9 206.6 149.6 207.2 147.2 207.8C147.1 207.8 147.1 207.8 147 207.9C141.2 209.2 135.1 209.9 129 209.9ZM303.8 23.9C299.2 23.9 294.6 24.5 290.1 25.6C288.9 25.9 287.9 26.2 286.8 26.5C286.7 26.5 286.6 26.6 286.4 26.6C285.1 27 151.5 64.2 120.1 73.2C96.9 79.9 72.1 98.2 72.1 129.4C72.1 160.7 97.6 186.2 128.9 186.2C133.2 186.2 137.5 185.7 141.7 184.8C143.5 184.4 145.2 183.9 147 183.3C147.2 183.2 147.4 183.2 147.5 183.1L310.2 137.2C325.2 132.7 360.5 118.1 360.5 80.6C360.6 49.4 335.1 23.9 303.8 23.9Z" fill="#05E2B7"/>
<g opacity="0.7">
<path d="M104.7 286.8C60.3001 286.8 24.2001 250.7 24.2001 206.3C24.2001 169.8 49.7001 138.8 89.3 127.4C120.2 118.5 250.1 82.3 255.6 80.7C257 80.3 258.3 79.9 259.7 79.5C259.8 79.5 259.9 79.4 260 79.4C266.3 77.8 272.8 77 279.4 77C323.8 77 359.9 113.1 359.9 157.5C359.9 194.5 334.7 224.1 292.5 236.8L129.9 282.6C127.6 283.4 125.3 284 122.9 284.6C122.8 284.6 122.8 284.6 122.7 284.7C116.9 286.1 110.8 286.8 104.7 286.8ZM279.5 100.8C274.9 100.8 270.3 101.4 265.8 102.5C264.6 102.8 263.6 103.1 262.5 103.4C262.4 103.4 262.3 103.5 262.1 103.5C260.8 103.9 127.2 141.1 95.8 150.1C72.6 156.8 47.8 175.1 47.8 206.3C47.8 237.6 73.3001 263.1 104.6 263.1C108.9 263.1 113.2 262.6 117.4 261.7C119.2 261.3 120.9 260.8 122.6 260.2C122.8 260.1 285.8 214.2 285.8 214.2C300.8 209.7 336.1 195.1 336.1 157.6C336.3 126.3 310.8 100.8 279.5 100.8Z" fill="#05E2B7"/>
</g>
<g opacity="0.45">
<path d="M80.4 365.7C36 365.7 -0.0999756 329.6 -0.0999756 285.2C-0.0999756 248.7 25.4 217.7 65 206.3C95.9 197.4 225.8 161.2 231.3 159.6C232.7 159.2 234 158.8 235.4 158.4C235.5 158.4 235.6 158.3 235.7 158.3C242 156.7 248.5 155.9 255.1 155.9C299.5 155.9 335.6 192 335.6 236.4C335.6 273.4 310.4 303 268.2 315.7L105.6 361.6C103.2 362.4 100.8 363.1 98.4 363.6C92.6 365.1 86.5 365.7 80.4 365.7ZM255.2 179.8C250.6 179.8 246 180.4 241.5 181.5C240.3 181.8 239.3 182.1 238.2 182.4C238.1 182.4 238 182.5 237.8 182.5C236.5 182.9 102.9 220.1 71.5 229.1C48.3 235.8 23.5 254.1 23.5 285.3C23.5 316.6 49 342.1 80.3 342.1C84.6 342.1 88.9 341.6 93.1 340.7C94.9 340.3 96.6 339.8 98.4 339.2C98.6 339.1 98.8 339.1 98.9 339L261.6 293.1C276.6 288.6 311.9 274 311.9 236.5C312 205.2 286.5 179.8 255.2 179.8Z" fill="#05E2B7"/>
</g>
</g>
<g filter="url(#filter0_d_2_21)">
<rect x="1596" y="36" width="506" height="291" rx="100" fill="#050028"/>
<path d="M1736.45 229H1706.11V141.32H1736.45C1749.93 141.32 1759.15 144.733 1764.1 151.56C1769.05 158.387 1771.52 169.096 1771.52 183.688C1771.52 191.112 1771.01 197.427 1769.98 202.632C1769.05 207.752 1767.34 212.403 1764.86 216.584C1760 224.861 1750.53 229 1736.45 229ZM1756.8 183.688C1756.8 173.107 1755.48 165.469 1752.83 160.776C1750.19 156.083 1744.73 153.736 1736.45 153.736H1720.32V216.456H1736.45C1744.9 216.456 1750.53 213.341 1753.34 207.112C1754.71 203.955 1755.61 200.584 1756.03 197C1756.54 193.416 1756.8 188.979 1756.8 183.688ZM1803.34 210.44C1806.25 215.475 1811.79 217.992 1819.98 217.992C1828.18 217.992 1833.68 215.517 1836.5 210.568C1839.4 205.619 1840.85 197.341 1840.85 185.736C1840.85 174.045 1839.35 165.555 1836.37 160.264C1833.47 154.973 1828.01 152.328 1819.98 152.328C1811.96 152.328 1806.46 154.973 1803.47 160.264C1800.49 165.555 1798.99 174.003 1798.99 185.608C1798.99 197.128 1800.44 205.405 1803.34 210.44ZM1847.63 219.656C1842.43 226.824 1833.21 230.408 1819.98 230.408C1806.76 230.408 1797.5 226.824 1792.21 219.656C1786.92 212.403 1784.27 201.053 1784.27 185.608C1784.27 170.163 1786.92 158.685 1792.21 151.176C1797.58 143.667 1806.84 139.912 1819.98 139.912C1833.13 139.912 1842.34 143.667 1847.63 151.176C1852.92 158.6 1855.57 170.077 1855.57 185.608C1855.57 201.139 1852.92 212.488 1847.63 219.656ZM1901.55 230.408C1888.75 230.408 1880.05 226.867 1875.44 219.784C1870.92 212.701 1868.66 201.053 1868.66 184.84C1868.66 168.627 1870.96 157.107 1875.57 150.28C1880.18 143.368 1888.84 139.912 1901.55 139.912C1909.15 139.912 1917.51 140.979 1926.64 143.112L1926.13 154.632C1918.45 153.267 1910.77 152.584 1903.09 152.584C1895.41 152.584 1890.2 154.888 1887.47 159.496C1884.74 164.019 1883.38 172.595 1883.38 185.224C1883.38 197.768 1884.7 206.344 1887.34 210.952C1889.99 215.475 1895.15 217.736 1902.83 217.736C1910.51 217.736 1918.28 217.096 1926.13 215.816L1926.51 227.592C1917.72 229.469 1909.4 230.408 1901.55 230.408ZM1967.47 152.328C1956.63 152.328 1951.21 156.125 1951.21 163.72C1951.21 167.645 1952.49 170.461 1955.05 172.168C1957.61 173.789 1963.24 175.837 1971.95 178.312C1980.73 180.701 1986.92 183.603 1990.51 187.016C1994.09 190.344 1995.88 195.635 1995.88 202.888C1995.88 212.104 1993.24 219.016 1987.95 223.624C1982.74 228.147 1975.61 230.408 1966.57 230.408C1959.32 230.408 1951.29 229.555 1942.51 227.848L1937.9 226.952L1939.31 215.56C1950.83 217.096 1959.61 217.864 1965.67 217.864C1976.25 217.864 1981.55 213.171 1981.55 203.784C1981.55 200.115 1980.35 197.427 1977.96 195.72C1975.57 193.928 1970.2 192.008 1961.83 189.96C1953.47 187.827 1947.24 184.925 1943.15 181.256C1939.05 177.587 1937 171.784 1937 163.848C1937 155.912 1939.56 149.939 1944.68 145.928C1949.89 141.832 1957.05 139.784 1966.19 139.784C1972.76 139.784 1980.52 140.552 1989.48 142.088L1993.96 142.856L1992.81 154.376C1980.86 153.011 1972.41 152.328 1967.47 152.328Z" fill="white"/>
</g>
<defs>
<filter id="filter0_d_2_21" x="1592" y="36" width="514" height="299" filterUnits="userSpaceOnUse" color-interpolation-filters="sRGB">
<feFlood flood-opacity="0" result="BackgroundImageFix"/>
<feColorMatrix in="SourceAlpha" type="matrix" values="0 0 0 0 0 0 0 0 0 0 0 0 0 0 0 0 0 0 127 0" result="hardAlpha"/>
<feOffset dy="4"/>
<feGaussianBlur stdDeviation="2"/>
<feComposite in2="hardAlpha" operator="out"/>
<feColorMatrix type="matrix" values="0 0 0 0 0 0 0 0 0 0 0 0 0 0 0 0 0 0 0.25 0"/>
<feBlend mode="normal" in2="BackgroundImageFix" result="effect1_dropShadow_2_21"/>
<feBlend mode="normal" in="SourceGraphic" in2="effect1_dropShadow_2_21" result="shape"/>
</filter>
<clipPath id="clip0_2_21">
<rect width="1596" height="366" fill="white"/>
</clipPath>
</defs>
</svg>
