<?xml version="1.0" encoding="UTF-8"?><svg id="Layer_2" data-name="Layer 2" xmlns="http://www.w3.org/2000/svg" viewBox="0 0 330 330"><defs><style>.cls-1 {
        fill: #0254ec;
      }

      .cls-2 {
        fill: #fff;
      }</style></defs><g id="Layer_1-2" data-name="Layer 1"><g id="Artwork_25" data-name="Artwork 25"><g><path class="cls-2" d="m0,0h330v330H0V0Z"/><path class="cls-2" d="m166.36,120h20.28c.36,0,.71.14.96.4s.4.6.4.96v91.27c0,.36-.14.71-.4.96-.26.26-.6.4-.96.4h-20.28c-.36,0-.71-.14-.96-.4-.26-.25-.4-.6-.4-.96v-91.27c0-.36.14-.71.4-.96.26-.26.6-.4.96-.4Z"/><path class="cls-2" d="m156.09,119h-21.32s-.55.89-.77,1.04c-.23.16-.4.38-.5.64l-15.01,39.31c-.05.12-.14.22-.25.27-.12.05-.25.06-.37.01-.12-.05-.21-.14-.27-.25l-17.93-39.06c-.18-.4-.46-.74-.82-.99-.36-.25-1.21.02-1.21.02h-.04s-.88-.29-1.25-.04c-.37.25-.66.6-.85,1.01l-17.92,39.05c-.04.09-.1.16-.19.21-.08.05-.18.08-.27.07-.1,0-.19-.03-.27-.09-.08-.06-.14-.13-.17-.22l-15.01-39.3c-.1-.26-.27-.48-.5-.64-.23-.16-.77-.05-.77-.05h-21.32s-.44-.14-.64-.03c-.2.1-.36.25-.49.44-.13.18-.2.4-.23.62-.02.22,0,.45.09.65l35.26,91.77c.03.09.09.16.17.22s.17.09.26.09c.09,0,.19-.02.27-.06.08-.05.15-.12.19-.2l21.48-42.99c.2-.4.51-.74.89-.98.38-.24.82-.36,1.27-.36s.89.13,1.27.36c.38.24.69.58.89.98l21.48,42.99c.06.11.16.2.28.24.12.04.26.03.37-.03.11-.05.19-.15.23-.26l35.26-91.77c.08-.21.11-.43.09-.66-.03-.22-.11-.44-.23-.62-.13-.19-.3-.34-.5-.44-.2-.1-.42-.16-.65-.15v-.8Z"/><path class="cls-1" d="m165,121.36v91.27c0,.18.03.36.1.52.07.16.17.32.29.44.13.13.28.23.44.3.17.07.34.1.52.1h20.28c.36,0,.71-.14.96-.4.26-.25.4-.6.4-.96v-91.27c0-.36-.14-.71-.4-.96-.26-.26-.6-.4-.96-.4h-20.28c-.18,0-.36.04-.52.1-.17.07-.32.17-.44.3-.13.13-.23.28-.29.44-.07.17-.1.34-.1.52h0Zm31.26,89.89c-.09.19-.14.39-.13.6,0,.21.07.41.18.58.11.17.26.32.44.42.18.1.39.15.59.15h73.27c.18,0,.36-.03.52-.1.17-.07.32-.17.45-.29.13-.13.23-.28.3-.44.07-.16.11-.34.11-.52v-17.29c0-.18-.04-.36-.11-.52-.07-.17-.17-.32-.3-.44-.13-.13-.28-.23-.44-.29-.17-.07-.34-.1-.52-.1h-36.97c-.21,0-.42-.05-.6-.15-.18-.1-.34-.25-.45-.43-.11-.18-.17-.39-.17-.6,0-.21.05-.42.15-.6l38.44-69.44c.1-.18.15-.39.14-.6,0-.21-.06-.42-.17-.6-.11-.18-.26-.33-.45-.43s-.39-.15-.6-.15h-72.56c-.18,0-.36.03-.52.1-.17.07-.32.17-.45.29-.13.13-.23.28-.3.44-.07.17-.11.34-.11.52v19.29c0,.36.15.71.41.96.26.25.61.4.97.39h32.23c.21,0,.41.05.59.15.18.1.33.24.44.42.11.17.17.38.18.58,0,.21-.03.41-.13.6l-34.44,67.52Zm-40.24-92.26h-21.31c-.28.78-.55.86-.77,1.02-.23.16-.4.38-.5.64l-15.01,39.28c-.03.09-.09.17-.17.22-.08.06-.17.09-.27.09-.1,0-.19-.02-.27-.07-.08-.05-.15-.12-.19-.21l-17.91-39.03c-.18-.4-.46-.74-.82-.99-.36-.25-.78-.39-1.21.05h-.03c-.45-.45-.88-.31-1.25-.06-.37.25-.66.6-.85,1l-17.91,39.03c-.04.09-.1.16-.19.21-.08.05-.18.08-.27.07-.1,0-.19-.03-.27-.09-.08-.06-.14-.13-.17-.22l-15.01-39.28c-.1-.26-.27-.48-.5-.64-.23-.16-.5-.24-.77-1.02h-21.31c-.22.78-.44.83-.64.94-.2.1-.36.25-.49.44-.13.18-.2.39-.23.62-.03.22,0,.44.08.65l35.24,91.72c.03.09.09.16.17.22.08.05.17.09.26.09.09,0,.19-.02.27-.06.08-.05.15-.12.19-.2l21.46-42.97c.2-.4.51-.74.89-.98.38-.24.82-.36,1.27-.36s.89.13,1.27.36c.38.24.69.58.89.98l21.46,42.96c.04.08.11.15.19.2.08.05.17.07.27.06.09,0,.18-.04.26-.09.08-.05.13-.13.17-.22l35.24-91.72c.08-.21.11-.43.08-.65-.03-.22-.1-.43-.23-.61-.12-.18-.29-.33-.49-.44-.19-.1-.41-.16-.63-.94Zm148.3-16.23c.1.02.2.08.26.16s.1.19.1.29h0c0,.11-.04.21-.1.29s-.16.14-.26.16c-3.85.89-9.68,2.61-12.06,4.98s-4.09,8.21-4.98,12.06c-.02.1-.08.2-.16.26-.08.07-.19.1-.29.1h0c-.11,0-.21-.04-.29-.1-.08-.07-.14-.16-.16-.26-.89-3.85-2.61-9.68-4.98-12.06s-8.21-4.09-12.06-4.98c-.1-.02-.2-.08-.26-.16-.06-.08-.1-.19-.1-.29h0c0-.11.04-.21.1-.29.07-.08.16-.14.26-.17,3.85-.89,9.68-2.61,12.06-4.98,2.38-2.37,4.1-8.21,4.98-12.06.02-.1.08-.2.16-.26.08-.07.18-.1.29-.1h0c.11,0,.21.04.29.1.08.07.14.16.16.26.89,3.85,2.61,9.68,4.98,12.06,2.37,2.38,8.21,4.09,12.06,4.98Z"/></g></g></g></svg>